<svg width="193" height="54" viewBox="0 0 193 54" fill="none" xmlns="http://www.w3.org/2000/svg">
<rect width="193" height="54" rx="27" fill="#FF7518"/>
<path d="M46.6979 34H45.4019V21.112H46.6979V26.854H53.6639V21.112H54.9419V34H53.6639V28.06H46.6979V34ZM57.2113 29.644C57.2113 26.98 59.0833 25.054 61.6393 25.054C64.1953 25.054 66.0673 26.98 66.0673 29.644C66.0673 32.29 64.1953 34.216 61.6393 34.216C59.0833 34.216 57.2113 32.29 57.2113 29.644ZM58.4713 29.626C58.4713 31.678 59.7673 33.1 61.6393 33.1C63.4933 33.1 64.8073 31.678 64.8073 29.626C64.8073 27.61 63.4933 26.17 61.6393 26.17C59.7673 26.17 58.4713 27.61 58.4713 29.626ZM69.5031 34L66.6231 25.288H67.9011L69.6111 30.544C69.8091 31.12 69.9711 31.714 70.1511 32.416C70.2951 31.714 70.5831 30.832 70.6731 30.544L72.4011 25.288H73.6791L75.3891 30.544C75.5511 31.012 75.7671 31.768 75.9291 32.416C76.1091 31.696 76.1451 31.48 76.4511 30.544L78.1791 25.288H79.4751L76.5231 34H75.3171L73.5171 28.528C73.3011 27.88 73.1571 27.34 73.0491 26.818C72.9231 27.286 72.7791 27.808 72.5451 28.528L70.7451 34H69.5031ZM87.5847 21.112V34H86.2887V21.112H87.5847ZM92.4463 34H91.2223V26.332H89.4763V25.288H91.2223V22.534H92.4463V25.288H94.1923V26.332H92.4463V34ZM103.61 34L99.7759 21.112H101.126L103.736 29.968C103.916 30.598 104.078 31.246 104.24 32.092C104.456 31.156 104.636 30.598 104.834 29.968L107.642 21.112H108.992L111.8 29.968C111.998 30.616 112.178 31.264 112.376 32.092C112.574 31.102 112.736 30.472 112.88 29.986L115.544 21.112H116.858L112.988 34H111.764L108.308 23.056L104.852 34H103.61ZM116.801 29.644C116.801 26.98 118.673 25.054 121.229 25.054C123.785 25.054 125.657 26.98 125.657 29.644C125.657 32.29 123.785 34.216 121.229 34.216C118.673 34.216 116.801 32.29 116.801 29.644ZM118.061 29.626C118.061 31.678 119.357 33.1 121.229 33.1C123.083 33.1 124.397 31.678 124.397 29.626C124.397 27.61 123.083 26.17 121.229 26.17C119.357 26.17 118.061 27.61 118.061 29.626ZM132.198 25.18V26.296H131.514C129.912 26.296 128.886 27.376 128.886 29.032V34H127.644V25.288H128.814L128.904 26.638C129.246 25.702 130.164 25.09 131.388 25.09C131.658 25.09 131.892 25.108 132.198 25.18ZM135.145 34H133.903V20.878H135.145V29.788L139.465 25.288H141.031L137.683 28.762L141.049 34H139.609L136.837 29.644L135.145 31.39V34ZM141.917 31.552H143.105C143.105 32.56 143.861 33.19 145.085 33.19C146.435 33.19 147.227 32.614 147.227 31.678C147.227 30.958 146.867 30.544 145.841 30.292L144.347 29.914C142.835 29.536 142.097 28.744 142.097 27.556C142.097 26.026 143.375 25.054 145.247 25.054C147.083 25.054 148.271 26.062 148.325 27.682H147.119C147.083 26.674 146.381 26.08 145.211 26.08C143.987 26.08 143.303 26.602 143.303 27.538C143.303 28.204 143.771 28.672 144.725 28.906L146.219 29.284C147.731 29.662 148.415 30.364 148.415 31.624C148.415 33.19 147.083 34.216 145.103 34.216C143.141 34.216 141.917 33.172 141.917 31.552Z" fill="#FBFBFB"/>
</svg>
