<svg width="193" height="55" viewBox="0 0 193 55" fill="none" xmlns="http://www.w3.org/2000/svg">
<rect y="0.0268555" width="193" height="54" rx="27" fill="#FF7518"/>
<path d="M61.7232 34.0269H60.4092L65.1432 21.1389H66.7452L71.5332 34.0269H70.1832L68.9232 30.6069H62.9832L61.7232 34.0269ZM65.7732 22.9569L63.3792 29.4729H68.5092L66.0972 22.9569C66.0432 22.7769 65.9532 22.5609 65.9352 22.4349C65.9172 22.5429 65.8452 22.7769 65.7732 22.9569ZM74.1348 34.0269H73.0548V20.9049H74.2968V27.0069C74.9088 25.7289 76.0968 25.0809 77.5728 25.0809C80.1108 25.0809 81.5868 27.0609 81.5868 29.6889C81.5868 32.2989 80.0748 34.2429 77.5368 34.2429C76.0788 34.2429 74.8728 33.5949 74.2608 32.2449L74.1348 34.0269ZM74.3148 29.6529C74.3148 31.6689 75.4308 33.1089 77.3388 33.1089C79.2288 33.1089 80.3268 31.6689 80.3268 29.6529C80.3268 27.6549 79.2288 26.1969 77.3388 26.1969C75.4308 26.1969 74.3148 27.6549 74.3148 29.6529ZM82.9545 29.6709C82.9545 27.0069 84.8265 25.0809 87.3825 25.0809C89.9385 25.0809 91.8105 27.0069 91.8105 29.6709C91.8105 32.3169 89.9385 34.2429 87.3825 34.2429C84.8265 34.2429 82.9545 32.3169 82.9545 29.6709ZM84.2145 29.6529C84.2145 31.7049 85.5105 33.1269 87.3825 33.1269C89.2365 33.1269 90.5505 31.7049 90.5505 29.6529C90.5505 27.6369 89.2365 26.1969 87.3825 26.1969C85.5105 26.1969 84.2145 27.6369 84.2145 29.6529ZM99.706 25.3149H100.948V34.0269H99.868L99.706 32.5509C99.22 33.5589 98.014 34.2429 96.646 34.2429C94.594 34.2429 93.478 32.8389 93.478 30.7149V25.2969H94.738V30.3189C94.738 32.3889 95.656 33.1269 97.042 33.1269C98.716 33.1269 99.706 32.0109 99.706 29.9409V25.3149ZM105.533 34.0269H104.309V26.3589H102.563V25.3149H104.309V22.5609H105.533V25.3149H107.279V26.3589H105.533V34.0269ZM114.069 29.5449V21.1389H115.365V29.4909C115.365 31.7589 116.607 32.9829 118.857 32.9829C121.053 32.9829 122.295 31.7229 122.295 29.4909V21.1389H123.591V29.5449C123.591 32.4609 121.791 34.2429 118.857 34.2429C115.869 34.2429 114.069 32.4789 114.069 29.5449ZM125.596 31.5789H126.784C126.784 32.5869 127.54 33.2169 128.764 33.2169C130.114 33.2169 130.906 32.6409 130.906 31.7049C130.906 30.9849 130.546 30.5709 129.52 30.3189L128.026 29.9409C126.514 29.5629 125.776 28.7709 125.776 27.5829C125.776 26.0529 127.054 25.0809 128.926 25.0809C130.762 25.0809 131.95 26.0889 132.004 27.7089H130.798C130.762 26.7009 130.06 26.1069 128.89 26.1069C127.666 26.1069 126.982 26.6289 126.982 27.5649C126.982 28.2309 127.45 28.6989 128.404 28.9329L129.898 29.3109C131.41 29.6889 132.094 30.3909 132.094 31.6509C132.094 33.2169 130.762 34.2429 128.782 34.2429C126.82 34.2429 125.596 33.1989 125.596 31.5789Z" fill="#FBFBFB"/>
</svg>
