<svg width="82" height="56" viewBox="0 0 82 56" fill="none" xmlns="http://www.w3.org/2000/svg">
<path d="M77.6403 43.7358C73.4617 42.2253 69.9796 39.2391 67.8497 35.3396C67.8339 35.3114 67.8093 35.2892 67.7796 35.2763C67.75 35.2635 67.7169 35.2607 67.6855 35.2684C67.6541 35.2762 67.6261 35.294 67.6058 35.3192C67.5855 35.3443 67.5741 35.3755 67.5732 35.4078C67.8498 39.3521 69.82 44.5466 73.912 44.5694C54.0809 44.4254 55.138 16.7626 48.227 7.24492C36.6861 -8.66845 11.8119 4.86171 0.10802 16.9786C0.0385293 17.0547 0 17.154 0 17.2571C0 17.3601 0.0385293 17.4595 0.10802 17.5356C0.173606 17.6172 0.268208 17.6702 0.372022 17.6836C0.475835 17.697 0.580814 17.6698 0.664988 17.6076C11.1223 9.04843 28.252 1.25088 38.8874 7.34343C51.4438 14.5423 45.6657 49.6465 74.2833 46.5813C71.3848 46.892 69.5888 52.8292 69.1228 55.3336C69.1228 55.3336 69.066 55.5913 69.1834 55.6292C69.3009 55.667 69.4714 55.4814 69.4714 55.4814C72.1065 50.7157 76.482 47.1534 81.683 45.5393C81.7708 45.5138 81.8485 45.4616 81.9052 45.3899C81.9619 45.3182 81.9949 45.2306 81.9995 45.1393C82.004 45.048 81.98 44.9575 81.9308 44.8805C81.8815 44.8035 81.8095 44.7437 81.7247 44.7095C81.7247 44.7095 78.3033 43.9745 77.6403 43.7358Z" fill="#FF7518"/>
<path d="M7.95018 18.0888C8.49924 17.2611 9.32985 16.6607 10.2879 16.3989C10.3223 16.3896 10.3587 16.3916 10.3919 16.4044C10.4251 16.4173 10.4533 16.4405 10.4723 16.4706C10.4914 16.5007 10.5003 16.536 10.4978 16.5715C10.4953 16.6071 10.4815 16.6408 10.4584 16.6679C9.85719 17.4277 9.05718 18.0061 8.1472 18.3388C8.11399 18.3516 8.07759 18.3533 8.04331 18.3439C8.00903 18.3344 7.97867 18.3142 7.95666 18.2863C7.93465 18.2584 7.92215 18.2242 7.92099 18.1886C7.91982 18.1531 7.93005 18.1181 7.95018 18.0888Z" fill="#FF7518"/>
<path d="M12.358 15.2584C18.2232 10.9163 26.2519 7.50254 33.4091 9.59781C33.4468 9.60534 33.4799 9.62754 33.5012 9.65951C33.5225 9.69149 33.5303 9.73062 33.5227 9.76831C33.5152 9.80599 33.493 9.83914 33.461 9.86045C33.4291 9.88177 33.3899 9.88951 33.3522 9.88197C26.0776 9.03326 18.9544 12.2462 12.5133 15.5047C12.4806 15.5253 12.4411 15.5321 12.4035 15.5236C12.3658 15.515 12.3331 15.4919 12.3125 15.4592C12.2919 15.4266 12.2851 15.3871 12.2936 15.3494C12.3022 15.3117 12.3253 15.279 12.358 15.2584Z" fill="#FF7518"/>
</svg>
