<svg width="194" height="55" viewBox="0 0 194 55" fill="none" xmlns="http://www.w3.org/2000/svg">
<rect x="0.5" y="0.0537109" width="193" height="54" rx="27" fill="#FF7518"/>
<path d="M88.1907 28.3837H82.9167V34.0537H81.6207V21.1657H89.2167V22.3537H82.9167V27.2137H88.1907V28.3837ZM90.5855 34.0537H89.2715L94.0055 21.1657H95.6075L100.396 34.0537H99.0455L97.7855 30.6337H91.8455L90.5855 34.0537ZM94.6355 22.9837L92.2415 29.4997H97.3715L94.9595 22.9837C94.9055 22.8037 94.8155 22.5877 94.7975 22.4617C94.7795 22.5697 94.7075 22.8037 94.6355 22.9837ZM111.847 34.7917L110.479 33.2437C109.507 33.9097 108.337 34.2697 107.023 34.2697C103.405 34.2697 100.885 31.5157 100.885 27.6097C100.885 23.7037 103.423 20.9317 107.023 20.9317C110.641 20.9317 113.161 23.6857 113.161 27.6097C113.161 29.6077 112.495 31.2997 111.379 32.4697L112.729 33.9817L111.847 34.7917ZM111.829 27.6097C111.829 24.3877 109.867 22.1917 107.023 22.1917C104.179 22.1917 102.235 24.3877 102.235 27.6097C102.235 30.8317 104.179 33.0277 107.023 33.0277C108.013 33.0277 108.895 32.7577 109.615 32.2897L107.941 30.3997L108.805 29.5897L110.515 31.4977C111.343 30.5437 111.829 29.1937 111.829 27.6097Z" fill="#FBFBFB"/>
</svg>
