<svg width="200" height="65" viewBox="0 0 200 65" fill="none" xmlns="http://www.w3.org/2000/svg">
<g clip-path="url(#clip0_321_1574)">
<path d="M192.593 64.0425H7.40741C3.25926 64.0425 0 60.5238 0 56.0453V8.06214C0 3.58371 3.25926 0.0649414 7.40741 0.0649414H192.593C196.741 0.0649414 200 3.58371 200 8.06214V56.0453C200 60.5238 196.741 64.0425 192.593 64.0425Z" fill="black"/>
<path d="M192.593 1.34449C196 1.34449 198.815 4.38343 198.815 8.06214V56.0453C198.815 59.7241 196 62.763 192.593 62.763H7.40741C4 62.763 1.18519 59.7241 1.18519 56.0453V8.06214C1.18519 4.38343 4 1.34449 7.40741 1.34449H192.593ZM192.593 0.0649414H7.40741C3.25926 0.0649414 0 3.74365 0 8.06214V56.0453C0 60.5238 3.25926 64.0425 7.40741 64.0425H192.593C196.741 64.0425 200 60.5238 200 56.0453V8.06214C200 3.74365 196.741 0.0649414 192.593 0.0649414Z" fill="#A6A6A6"/>
<path d="M71.2062 16.3574C71.2062 17.5718 70.866 18.6344 70.0155 19.3934C68.9948 20.3043 67.8041 20.7597 66.2732 20.7597C64.7423 20.7597 63.5515 20.3043 62.5309 19.3934C61.5103 18.4826 61 17.42 61 16.0538C61 14.6876 61.5103 13.6249 62.5309 12.7141C63.5515 11.8033 64.7423 11.3479 66.2732 11.3479C66.9536 11.3479 67.634 11.4997 68.3144 11.8033C68.9948 12.1069 69.5051 12.4105 69.8454 12.8659L68.9948 13.6249C68.3144 12.8659 67.4639 12.5623 66.2732 12.5623C65.2526 12.5623 64.232 12.8659 63.5515 13.6249C62.701 14.2322 62.3608 15.143 62.3608 16.2056C62.3608 17.2682 62.701 18.179 63.5515 18.7862C64.4021 19.3934 65.2526 19.8488 66.2732 19.8488C67.4639 19.8488 68.3144 19.5452 69.1649 18.7862C69.6753 18.3308 70.0155 17.7236 70.0155 16.9646H66.2732V15.7502H71.2062V16.3574ZM79.0309 12.5623H74.4381V15.4466H78.6907V16.5092H74.4381V19.3934H79.0309V20.6079H73.0773V11.4997H79.0309V12.5623ZM84.6443 20.6079H83.2835V12.5623H80.3918V11.4997H87.5361V12.5623H84.6443V20.6079ZM92.4691 20.6079V11.4997H93.8299V20.6079H92.4691ZM99.6134 20.6079H98.2526V12.5623H95.3608V11.4997H102.335V12.5623H99.4433V20.6079H99.6134ZM115.773 19.3934C114.753 20.3043 113.562 20.7597 112.031 20.7597C110.5 20.7597 109.309 20.3043 108.289 19.3934C107.268 18.4826 106.758 17.42 106.758 16.0538C106.758 14.6876 107.268 13.6249 108.289 12.7141C109.309 11.8033 110.5 11.3479 112.031 11.3479C113.562 11.3479 114.753 11.8033 115.773 12.7141C116.794 13.6249 117.304 14.6876 117.304 16.0538C117.304 17.42 116.794 18.4826 115.773 19.3934ZM109.309 18.6344C109.99 19.2416 111.01 19.697 112.031 19.697C113.052 19.697 114.072 19.3934 114.753 18.6344C115.433 18.0272 115.943 17.1164 115.943 16.0538C115.943 14.9912 115.603 14.0803 114.753 13.4731C114.072 12.8659 113.052 12.4105 112.031 12.4105C111.01 12.4105 109.99 12.7141 109.309 13.4731C108.629 14.0803 108.119 14.9912 108.119 16.0538C108.119 17.1164 108.459 18.0272 109.309 18.6344ZM119.175 20.6079V11.4997H120.706L125.639 18.6344V11.4997H127V20.6079H125.639L120.366 13.1695V20.6079H119.175Z" fill="white" stroke="white" stroke-width="0.925926" stroke-miterlimit="10"/>
<path d="M100.889 34.9327C97.3331 34.9327 94.5183 37.8116 94.5183 41.8102C94.5183 45.6489 97.3331 48.6878 100.889 48.6878C104.444 48.6878 107.259 45.8088 107.259 41.8102C107.259 37.6517 104.444 34.9327 100.889 34.9327ZM100.889 45.8088C98.9627 45.8088 97.3331 44.0495 97.3331 41.6503C97.3331 39.2511 98.9627 37.4918 100.889 37.4918C102.815 37.4918 104.444 39.0912 104.444 41.6503C104.444 44.0495 102.815 45.8088 100.889 45.8088ZM87.1109 34.9327C83.5553 34.9327 80.7405 37.8116 80.7405 41.8102C80.7405 45.6489 83.5553 48.6878 87.1109 48.6878C90.6665 48.6878 93.4813 45.8088 93.4813 41.8102C93.4813 37.6517 90.6665 34.9327 87.1109 34.9327ZM87.1109 45.8088C85.185 45.8088 83.5553 44.0495 83.5553 41.6503C83.5553 39.2511 85.185 37.4918 87.1109 37.4918C89.0368 37.4918 90.6665 39.0912 90.6665 41.6503C90.6665 44.0495 89.0368 45.8088 87.1109 45.8088ZM70.6665 37.0119V39.8909H77.0368C76.8887 41.4904 76.2961 42.7699 75.5553 43.5696C74.6665 44.5293 73.185 45.6489 70.6665 45.6489C66.6665 45.6489 63.7035 42.2901 63.7035 37.9716C63.7035 33.6531 66.8146 30.2943 70.6665 30.2943C72.7405 30.2943 74.3702 31.2539 75.5553 32.3735L77.4813 30.2943C75.8516 28.6948 73.7776 27.4153 70.8146 27.4153C65.4813 27.4153 60.8887 32.2136 60.8887 37.9716C60.8887 43.7296 65.4813 48.5279 70.8146 48.5279C73.7776 48.5279 75.8516 47.5682 77.6294 45.489C79.4072 43.5696 79.9998 40.8506 79.9998 38.7713C79.9998 38.1315 79.9998 37.4918 79.8516 37.0119H70.6665ZM137.926 39.2511C137.333 37.6517 135.852 34.9327 132.592 34.9327C129.333 34.9327 126.666 37.6517 126.666 41.8102C126.666 45.6489 129.333 48.6878 132.889 48.6878C135.703 48.6878 137.481 46.7685 138.074 45.6489L136 44.0495C135.259 45.1691 134.37 45.9688 132.889 45.9688C131.407 45.9688 130.518 45.329 129.778 43.8895L138.222 40.0509L137.926 39.2511ZM129.333 41.4904C129.333 38.9313 131.259 37.4918 132.592 37.4918C133.629 37.4918 134.666 38.1315 134.963 38.9313L129.333 41.4904ZM122.37 48.0481H125.185V28.0551H122.37V48.0481ZM117.926 36.3721C117.185 35.5724 116 34.7727 114.518 34.7727C111.407 34.7727 108.444 37.8116 108.444 41.6503C108.444 45.489 111.259 48.368 114.518 48.368C116 48.368 117.185 47.5682 117.778 46.7685H117.926V47.7282C117.926 50.2873 116.592 51.7268 114.518 51.7268C112.889 51.7268 111.703 50.4472 111.407 49.3276L109.037 50.4472C109.778 52.2066 111.555 54.4458 114.666 54.4458C117.926 54.4458 120.592 52.3666 120.592 47.4083V35.2525H117.926V36.3721ZM114.666 45.8088C112.741 45.8088 111.111 44.0495 111.111 41.6503C111.111 39.2511 112.741 37.4918 114.666 37.4918C116.592 37.4918 118.074 39.2511 118.074 41.6503C118.074 44.0495 116.592 45.8088 114.666 45.8088ZM150.815 28.0551H144.148V48.0481H146.963V40.5307H150.815C153.926 40.5307 156.889 38.1315 156.889 34.2929C156.889 30.4542 153.926 28.0551 150.815 28.0551ZM150.963 37.6517H146.963V30.7741H150.963C153.037 30.7741 154.222 32.6934 154.222 34.1329C154.074 35.8923 152.889 37.6517 150.963 37.6517ZM168 34.7727C165.926 34.7727 163.852 35.7324 163.111 37.8116L165.629 38.9313C166.222 37.8116 167.111 37.4918 168.148 37.4918C169.629 37.4918 170.963 38.4514 171.111 40.0509V40.2108C170.666 39.8909 169.481 39.4111 168.296 39.4111C165.629 39.4111 162.963 41.0105 162.963 43.8895C162.963 46.6086 165.185 48.368 167.555 48.368C169.481 48.368 170.37 47.4083 171.111 46.4486H171.259V48.0481H173.926V40.3707C173.629 36.852 171.111 34.7727 168 34.7727ZM167.703 45.8088C166.815 45.8088 165.481 45.329 165.481 44.0495C165.481 42.45 167.111 41.9702 168.444 41.9702C169.629 41.9702 170.222 42.2901 170.963 42.61C170.666 44.5293 169.185 45.8088 167.703 45.8088ZM183.259 35.2525L180.148 43.8895H180L176.741 35.2525H173.778L178.666 47.4083L175.852 54.1259H178.666L186.222 35.2525H183.259ZM158.37 48.0481H161.185V28.0551H158.37V48.0481Z" fill="white"/>
<path d="M15.4075 12.0605C14.9631 12.5404 14.8149 13.3401 14.8149 14.2998V49.6474C14.8149 50.6071 15.1112 51.4068 15.5557 51.8866L15.7038 52.0466L34.0742 32.2135V31.8936L15.4075 12.0605Z" fill="url(#paint0_linear_321_1574)"/>
<path d="M40.0003 38.9312L33.9263 32.3735V31.8936L40.0003 25.3359L40.1485 25.4959L47.4078 29.9743C49.4818 31.2539 49.4818 33.3331 47.4078 34.6127L40.0003 38.9312Z" fill="url(#paint1_linear_321_1574)"/>
<path d="M40.1485 38.7714L33.9262 32.0537L15.4077 52.0467C16.1485 52.8464 17.1855 52.8464 18.5188 52.2067L40.1485 38.7714Z" fill="url(#paint2_linear_321_1574)"/>
<path d="M40.1485 25.3358L18.5188 12.0604C17.1855 11.2607 16.1485 11.4207 15.4077 12.2204L33.9262 32.0534L40.1485 25.3358Z" fill="url(#paint3_linear_321_1574)"/>
<path opacity="0.2" d="M40.0003 38.6113L18.5188 51.7267C17.3336 52.5265 16.2966 52.3665 15.5559 51.7267L15.4077 51.8867L15.5559 52.0466C16.2966 52.6864 17.3336 52.8463 18.5188 52.0466L40.0003 38.6113Z" fill="black"/>
<path opacity="0.12" d="M15.4075 51.7268C14.9631 51.247 14.8149 50.4473 14.8149 49.4876V49.6476C14.8149 50.6072 15.1112 51.4069 15.5557 51.8868V51.7268H15.4075ZM47.4075 34.133L40.0001 38.6114L40.1483 38.7714L47.4075 34.2929C48.4446 33.6532 48.889 32.8534 48.889 32.0537C48.889 32.8534 48.2964 33.4932 47.4075 34.133Z" fill="black"/>
<path opacity="0.25" d="M18.5186 12.2206L47.4075 29.9744C48.2964 30.6141 48.889 31.2539 48.889 32.0536C48.889 31.2539 48.4446 30.4542 47.4075 29.8144L18.5186 12.0606C16.4446 10.7811 14.8149 11.7407 14.8149 14.2999V14.4598C14.8149 12.0606 16.4446 10.941 18.5186 12.2206Z" fill="white"/>
</g>
<defs>
<linearGradient id="paint0_linear_321_1574" x1="32.2964" y1="13.9959" x2="5.53172" y2="38.7852" gradientUnits="userSpaceOnUse">
<stop stop-color="#00A0FF"/>
<stop offset="0.007" stop-color="#00A1FF"/>
<stop offset="0.26" stop-color="#00BEFF"/>
<stop offset="0.512" stop-color="#00D2FF"/>
<stop offset="0.76" stop-color="#00DFFF"/>
<stop offset="1" stop-color="#00E3FF"/>
</linearGradient>
<linearGradient id="paint1_linear_321_1574" x1="50.1248" y1="32.0552" x2="14.2774" y2="32.0552" gradientUnits="userSpaceOnUse">
<stop stop-color="#FFE000"/>
<stop offset="0.409" stop-color="#FFBD00"/>
<stop offset="0.775" stop-color="#FFA500"/>
<stop offset="1" stop-color="#FF9C00"/>
</linearGradient>
<linearGradient id="paint2_linear_321_1574" x1="36.781" y1="35.726" x2="0.487551" y2="69.3429" gradientUnits="userSpaceOnUse">
<stop stop-color="#FF3A44"/>
<stop offset="1" stop-color="#C31162"/>
</linearGradient>
<linearGradient id="paint3_linear_321_1574" x1="10.8107" y1="0.346145" x2="27.0182" y2="15.3584" gradientUnits="userSpaceOnUse">
<stop stop-color="#32A071"/>
<stop offset="0.069" stop-color="#2DA771"/>
<stop offset="0.476" stop-color="#15CF74"/>
<stop offset="0.801" stop-color="#06E775"/>
<stop offset="1" stop-color="#00F076"/>
</linearGradient>
<clipPath id="clip0_321_1574">
<rect width="200" height="64" fill="white" transform="translate(0 0.0537109)"/>
</clipPath>
</defs>
</svg>
