<svg width="2500" height="857" viewBox="0 0 2500 857" fill="none" xmlns="http://www.w3.org/2000/svg">
<path d="M386.59 416.434H494.101V567.437C460.556 578.215 418.2 584.126 374.171 584.126C195.731 584.126 90.8548 431.321 90.8548 282.086C90.8548 135.719 185.717 33.0513 318.062 33.0513C401.808 33.0513 450.537 61.4224 494.132 100.942V150.209L575.875 68.4652C524.172 33.4848 449.304 0.240234 342.294 0.240234C107.377 0.240234 0 168.303 0 306.419C0 503.014 143.193 621.444 323.139 621.444C410.389 621.444 487.859 608.125 577.346 583.225V427.215C577.346 419.238 580.852 413.764 586.092 408.957L614.33 380.719H422.573L386.59 416.434Z" fill="url(#paint0_linear_5638_4131)"/>
<path d="M868.205 211.224C732.99 211.224 649.211 310.027 649.211 414.901C649.211 505.423 716.705 612.898 853.452 612.898C984.996 612.898 1065.7 513.902 1065.7 407.191C1065.7 307.791 986.832 211.26 868.205 211.26V211.224ZM845.771 240.03C941.103 240.03 983.558 364.23 983.558 452.816C983.558 584.56 884.725 587.164 872.909 587.164C827.681 587.164 796.071 559.83 772.409 523.978C751.581 490.937 731.221 429.552 731.221 369.571C731.221 309.824 750.777 280.651 781.555 259.189C806.723 243.1 830.288 240.03 845.739 240.03H845.771Z" fill="url(#paint1_linear_5638_4131)"/>
<path d="M1752.1 211.19C1634 211.19 1570.12 285.958 1570.12 369.437C1570.12 432.99 1615.64 504.686 1709.57 504.686H1733.33C1733.33 504.686 1726.86 520.407 1726.83 535.595C1726.83 557.995 1734.87 570.574 1751.96 589.934C1590.34 599.78 1525.39 664.969 1525.39 735.03C1525.39 796.382 1584.14 856.764 1707.6 856.764C1853.76 856.764 1929.46 775.617 1929.46 695.98C1929.46 639.838 1901.49 609.063 1830.66 555.992C1809.84 539.803 1805.8 529.493 1805.8 517.377C1805.8 500.02 1816.18 488.534 1819.98 484.198C1826.69 477.122 1838.31 469.044 1842.65 465.173C1866.45 445.012 1900.06 415.175 1900.06 355.625C1900.06 314.77 1883.06 279.623 1844.35 246.712H1891.61L1927.13 211.198H1752.1V211.19ZM1719.52 237.759C1740.95 237.759 1758.84 245.337 1777.73 261.058C1798.69 279.95 1832.17 330.718 1832.17 393.536C1832.17 461.328 1779.5 479.886 1751 479.886C1737.04 479.886 1720.33 475.981 1706.17 466.301C1674.73 445.91 1643.52 391.633 1643.52 327.046C1643.52 268.768 1678.23 237.759 1719.52 237.759ZM1766.28 615.669C1775.29 615.669 1781.77 616.407 1781.77 616.407C1781.77 616.407 1803.03 631.594 1817.89 642.939C1852.47 670.276 1874.03 691.171 1874.03 728.391C1874.03 779.56 1826.56 819.68 1749.69 819.68C1665.31 819.68 1600.83 780.394 1600.83 716.244C1600.83 663.102 1645.02 617.368 1766.28 615.669Z" fill="url(#paint2_linear_5638_4131)"/>
<path d="M1952.7 601.183H2114.82L2139.51 576.487L2093.02 570.679C2080.5 569.143 2073.06 558.329 2073.06 547.848V58.1552C2073.06 48.5089 2077.53 43.5688 2080.8 40.4279L2110.04 11.1885H1971.79L1935.81 47.1704H1989.55V554.42C1989.55 561.63 1987.28 566.536 1982.4 571.576L1952.7 601.183Z" fill="url(#paint3_linear_5638_4131)"/>
<path d="M2334.48 211.224C2243.96 211.224 2147.79 280.217 2147.79 404.083C2147.79 506.385 2216.79 612.898 2345.69 612.898C2377.84 612.898 2404.31 608.763 2429.11 597.381C2455.71 585.131 2481.31 565.237 2500 540.237C2464.72 558.027 2435.95 569.71 2397.73 569.71C2325.1 569.71 2255.07 517.306 2230.57 420.976L2487.15 317.27C2472.33 264.432 2430.54 211.224 2334.51 211.224H2334.48ZM2317.72 239.562C2366.29 239.562 2401.4 279.516 2401.4 310.791C2401.4 320.905 2395.06 326.246 2382.51 331.186L2224.79 394.971C2224.79 394.971 2220.53 375.112 2220.53 353.649C2220.53 263.628 2285.61 239.562 2317.72 239.562Z" fill="url(#paint4_linear_5638_4131)"/>
<path d="M1327.02 211.224C1191.81 211.224 1108.03 310.027 1108.03 414.901C1108.03 505.423 1175.52 612.898 1312.27 612.898C1443.81 612.898 1524.52 513.902 1524.52 407.191C1524.52 307.791 1445.65 211.26 1327.02 211.26V211.224ZM1304.59 240.03C1399.92 240.03 1442.37 364.23 1442.37 452.816C1442.37 584.56 1343.54 587.164 1331.73 587.164C1286.5 587.164 1254.89 559.83 1231.23 523.978C1210.4 490.937 1190.04 429.552 1190.04 369.571C1190.04 309.824 1209.59 280.651 1240.37 259.189C1265.54 243.1 1289.1 240.03 1304.56 240.03H1304.59Z" fill="url(#paint5_linear_5638_4131)"/>
<defs>
<linearGradient id="paint0_linear_5638_4131" x1="305.638" y1="-1.51822" x2="305.638" y2="621.41" gradientUnits="userSpaceOnUse">
<stop stop-color="#196EEF"/>
<stop offset="0.5" stop-color="#186DEE"/>
<stop offset="1" stop-color="#1065E7"/>
</linearGradient>
<linearGradient id="paint1_linear_5638_4131" x1="855.943" y1="210.272" x2="855.943" y2="613.068" gradientUnits="userSpaceOnUse">
<stop stop-color="#DE5744"/>
<stop offset="0.5" stop-color="#DB4632"/>
<stop offset="1" stop-color="#D13D29"/>
</linearGradient>
<linearGradient id="paint2_linear_5638_4131" x1="1725.94" y1="210.272" x2="1725.94" y2="857.009" gradientUnits="userSpaceOnUse">
<stop stop-color="#1A6FEF"/>
<stop offset="0.25" stop-color="#1E72EF"/>
<stop offset="0.5" stop-color="#166BEC"/>
<stop offset="0.75" stop-color="#1267E9"/>
<stop offset="1" stop-color="#1063E5" stop-opacity="0.87"/>
</linearGradient>
<linearGradient id="paint3_linear_5638_4131" x1="2036.18" y1="9.79972" x2="2036.18" y2="601.751" gradientUnits="userSpaceOnUse">
<stop stop-color="#0AA561"/>
<stop offset="0.5" stop-color="#009B58"/>
<stop offset="1" stop-color="#00914B"/>
</linearGradient>
<linearGradient id="paint4_linear_5638_4131" x1="2322.43" y1="210.272" x2="2322.43" y2="611.959" gradientUnits="userSpaceOnUse">
<stop stop-color="#DE5644"/>
<stop offset="0.5" stop-color="#DA4531"/>
<stop offset="1" stop-color="#CE3A28"/>
</linearGradient>
<linearGradient id="paint5_linear_5638_4131" x1="1314.77" y1="211.147" x2="1314.77" y2="612.27" gradientUnits="userSpaceOnUse">
<stop stop-color="#FFC01A"/>
<stop offset="0.5" stop-color="#FFBA03"/>
<stop offset="1" stop-color="#FFB300"/>
</linearGradient>
</defs>
</svg>
