<svg width="2500" height="573" viewBox="0 0 2500 573" fill="none" xmlns="http://www.w3.org/2000/svg">
<g clip-path="url(#clip0_5638_4117)">
<path d="M1588.86 358.628C1545.33 358.628 1509.9 323.194 1509.9 279.673C1509.9 236.142 1545.33 200.719 1588.86 200.719C1632.39 200.719 1667.8 236.142 1667.8 279.673C1667.8 323.629 1631.95 358.628 1588.86 358.628ZM1588.86 153.767C1519.3 153.767 1462.96 210.111 1462.96 279.673C1462.96 349.235 1519.3 405.569 1588.86 405.569C1658.42 405.569 1714.75 349.235 1714.75 279.673C1714.75 210.536 1658.42 153.767 1588.86 153.767ZM1434.8 365.024H1445.04V412.391H1434.8C1380.6 412.391 1336.21 368.01 1336.21 313.812V97.4335H1383.58V160.599H1444.6V207.975H1383.58V314.237C1383.58 341.979 1406.63 365.024 1434.8 365.024ZM2011.78 358.628C1968.25 358.628 1932.83 323.194 1932.83 279.673C1932.83 236.142 1968.25 200.719 2011.78 200.719C2055.31 200.719 2090.73 236.142 2090.73 279.673C2090.31 323.629 2054.88 358.628 2011.78 358.628ZM2011.78 153.767C1942.22 153.767 1885.88 210.111 1885.88 279.673C1885.88 349.235 1942.22 405.569 2011.78 405.569C2081.34 405.569 2137.68 349.235 2137.68 279.673C2137.68 210.536 2081.34 153.767 2011.78 153.767ZM2374.11 358.628C2330.57 358.628 2295.16 323.194 2295.16 279.673C2295.16 236.142 2330.57 200.719 2374.1 200.719C2417.63 200.719 2453.06 236.142 2453.06 279.673C2453.06 323.629 2417.21 358.618 2374.1 358.618M2374.1 153.767C2304.54 153.767 2248.21 210.111 2248.21 279.673C2248.21 349.235 2304.54 405.569 2374.1 405.569C2404.83 405.569 2433 394.467 2454.77 376.117V400.873H2500V283.509V279.664C2500 210.527 2443.67 153.767 2374.1 153.767ZM1844.91 153.777H1867.53V201.144H1844.91C1816.76 201.144 1793.7 224.199 1793.7 252.357V402.583H1746.33V252.357C1746.33 198.158 1790.71 153.777 1844.91 153.777ZM2169.26 91.0367H2216.63V401.724H2169.26V91.0367ZM1021.26 258.753V408.555H973.882V258.753C973.882 230.586 950.836 207.541 922.669 207.541C894.511 207.541 871.456 230.586 871.456 258.753V408.546H824.089V258.753C824.089 230.586 801.034 207.541 772.877 207.541C744.719 207.541 721.664 230.586 721.664 258.753V408.546H674.297V258.753C674.297 204.545 718.678 160.164 772.451 160.164C802.754 160.164 829.21 173.393 847.56 194.738C865.91 173.393 892.366 160.164 922.678 160.164C976.867 160.164 1021.26 204.545 1021.26 258.753ZM1179.16 365.024C1135.63 365.024 1100.2 329.601 1100.2 286.07C1100.2 242.539 1135.64 207.116 1179.16 207.116C1222.69 207.116 1258.11 242.549 1258.11 286.07C1258.11 329.601 1222.26 365.024 1179.16 365.024ZM1179.16 160.174C1109.17 160.174 1052.83 216.508 1052.83 286.07C1052.83 355.632 1109.17 411.966 1178.73 411.966C1248.29 411.966 1304.63 355.632 1304.63 286.07C1305.05 216.933 1248.72 160.174 1179.16 160.174ZM286.356 0.138916C128.032 0.138916 0 128.171 0 286.495C0 444.82 128.032 572.861 286.356 572.861C444.69 572.861 572.722 444.829 572.722 286.495C572.722 129.021 446.391 0.138916 286.356 0.138916Z" fill="black"/>
<path d="M371.718 70.5515L286.792 352.221L286.357 352.646L285.507 352.221L200.58 70.5515L90.8984 431.176H111.384C111.384 431.176 125.047 368.435 147.667 330.886C160.045 310.401 178.82 293.752 203.992 294.177C221.916 294.612 237.28 304.42 256.489 331.311C260.751 337.283 265.872 347.1 270.993 356.492C279.11 372.272 285.932 388.495 285.932 388.495C285.932 388.495 303.856 347.525 315.384 331.311C334.584 304.42 349.948 294.612 367.872 294.177C393.053 293.752 412.253 310.401 424.206 330.886C446.826 368.435 460.489 431.176 460.489 431.176H480.965L371.718 70.5515Z" fill="white"/>
</g>
<defs>
<clipPath id="clip0_5638_4117">
<rect width="2500" height="573" fill="white"/>
</clipPath>
</defs>
</svg>
