<svg width="2500" height="572" viewBox="0 0 2500 572" fill="none" xmlns="http://www.w3.org/2000/svg">
<path d="M276.503 89.1252V143.732H53.2626V518.79H430.571V296.049H483.865V571.959H0V89.1252H276.503ZM483.865 0.0415039V89.1252H573.136V143.732H483.865V232.816H430.571V143.732H339.862V89.1252H430.571V0.0415039H483.865ZM221.771 446.929V296.049H171.353V257.259H177.136C192.952 257.259 205.924 254.383 214.582 247.194C223.209 240.005 228.961 227.095 228.961 211.279H276.503V446.929H221.771ZM636.526 331.995C636.526 247.194 689.789 183.96 773.309 183.96C856.86 183.96 910.122 247.194 910.122 331.995C910.122 416.765 856.86 478.561 773.309 478.561C689.789 478.561 636.526 416.765 636.526 331.995ZM851.077 331.995C851.077 275.951 825.165 231.378 773.309 231.378C721.484 231.378 694.102 275.951 694.102 331.995C694.102 388.04 720.046 432.582 773.309 432.582C826.603 431.144 851.077 388.04 851.077 331.995ZM959.103 189.712H1018.15L1113.17 347.78C1121.83 363.597 1133.33 388.04 1133.33 388.04H1134.77C1134.77 388.04 1133.33 359.283 1133.33 339.153V189.712H1189.5V472.81H1133.33L1035.4 316.179C1026.78 301.801 1015.24 277.389 1015.24 277.389H1013.8C1013.8 277.389 1015.24 307.552 1015.24 326.244V472.81H959.103V189.712ZM1252.86 189.712H1461.69V237.129H1310.47V300.363H1442.97V347.78H1310.47V423.955H1463.13V472.81H1252.86V189.712ZM1644.58 189.712C1677.71 189.712 1702.19 199.776 1719.47 215.593C1735.29 231.378 1745.38 254.383 1745.38 280.264C1745.38 333.433 1709.37 369.348 1650.33 369.348H1581.22V471.372H1522.17V189.712H1644.58ZM1578.34 323.368H1637.39C1667.61 323.368 1683.46 306.114 1683.46 281.702C1683.46 255.821 1666.18 240.005 1638.83 240.005H1578.34V323.368ZM1785.71 189.712H1843.31V423.955H1975.78V472.81H1785.71V189.712ZM2007.48 189.712H2065.08V382.289C2065.08 411.014 2079.49 432.582 2118.38 432.582C2154.36 432.582 2171.64 411.014 2171.64 382.289V189.712H2229.25V382.289C2229.25 442.615 2191.8 478.561 2119.82 478.561C2044.92 477.124 2007.48 442.615 2007.48 380.851V189.712ZM2325.74 385.164C2330.05 419.641 2348.78 432.582 2389.1 432.582C2417.89 432.582 2443.83 422.517 2443.83 396.636C2443.83 369.348 2416.45 363.597 2373.25 353.532C2322.86 342.029 2275.32 329.12 2275.32 270.199C2275.32 214.155 2321.43 185.398 2383.35 185.398C2446.71 185.398 2488.47 217.031 2492.78 273.075H2438.05C2435.17 244.318 2412.14 229.94 2383.35 229.94C2353.09 229.94 2331.49 242.88 2331.49 263.01C2331.49 285.984 2351.65 293.174 2393.41 301.801C2452.46 314.741 2500 327.682 2500 389.446C2500 446.929 2453.9 478.561 2389.1 478.561C2314.21 478.561 2271.01 444.053 2269.57 385.164H2325.74Z" fill="#F50514"/>
</svg>
