<svg width="1435" height="735" viewBox="0 0 1435 735" fill="none" xmlns="http://www.w3.org/2000/svg">
<path d="M342.358 373.298V200.861H390.524V212.258C390.524 218.527 390.61 223.656 390.714 223.656C390.819 223.656 393.859 221.59 397.47 219.065C440.07 189.276 501.997 180.305 557.537 195.878C607.575 209.909 643.851 243.215 656.746 286.969C664.281 312.538 663.866 340.972 655.595 365.699C645.307 396.459 624.157 421.19 593.651 438.132C566.955 452.958 536.474 460.382 502.301 460.382C473.972 460.382 447.551 455.107 424.293 444.81C415.065 440.725 403.235 434.018 396.059 428.802L390.524 424.78V545.737H342.358V373.298ZM525.6 414.539C552.693 410.248 573.714 400.651 589.474 385.376C601.405 373.815 609.712 357.758 612.86 340.179C614.148 332.988 614.151 316.011 612.867 308.842C609.161 288.154 598.543 270.082 582.649 257.41C576.242 252.303 563.227 245.024 554.92 241.904C531.462 233.094 503.019 230.485 476.968 234.754C431.738 242.165 401.169 267.211 392.967 303.572C389.348 319.616 389.995 336.936 394.777 352.073C405.638 386.457 437.668 409.338 482.931 415.048C492.031 416.197 517.017 415.898 525.601 414.539H525.6ZM685.284 373.298V200.861H733.449V212.258C733.449 218.527 733.555 223.656 733.681 223.656C733.809 223.656 736.459 221.803 739.57 219.54C746.772 214.299 760.984 206.46 770.098 202.706C809.438 186.494 857.472 183.878 899.508 195.661C968.031 214.868 1008.38 267.49 1004.57 332.673C1001.66 382.428 972.011 423.298 923.237 444.777C907.326 451.782 891.021 456.2 870.614 459.035C859.844 460.53 830.817 460.53 819.574 459.031C787.751 454.793 759.813 444.242 738.03 428.237L733.449 424.872V545.737H685.284V373.298ZM869.692 414.285C907.215 408.029 933.657 391.152 947.551 364.592C955.622 349.163 958.644 328.639 955.651 309.583C949.429 269.976 918.252 242.569 870.518 234.746C839.013 229.583 803.442 234.726 779.261 247.939C754.577 261.427 739.721 281.565 734.65 308.414C733.32 315.463 733.323 333.583 734.658 340.491C738.249 359.088 746.367 374.475 758.688 386.038C775.652 401.961 797.731 411.443 826.381 415.108C835.857 416.32 860.268 415.856 869.692 414.285ZM143.407 460.026C117.857 457.506 96.0493 451.886 77.5054 443.043C35.3258 422.929 8.68512 388.98 1.45505 346.131C0.0737399 337.948 -0.452904 319.51 0.44239 310.7C5.66369 259.329 39.5585 218.638 93.1467 199.411C121.664 189.18 156.765 185.837 188.274 190.353C245.998 198.628 289.663 228.513 308.856 272.883C324.483 309.009 322.5 352.891 303.715 386.628C295.253 401.825 281.323 417.509 266.966 427.999C244.631 444.318 217.954 454.47 185.553 458.981C179.063 459.885 149.427 460.619 143.407 460.026ZM177.575 415.103C202.701 412.127 223.837 404.116 239.74 391.55C252.741 381.276 263.03 366.132 267.646 350.477C270.349 341.314 270.885 337.012 270.885 324.49C270.885 312.004 270.356 307.737 267.675 298.568C258.862 268.427 233.087 246.007 197.072 237.157C165.494 229.395 128.668 232.093 101.385 244.164C81.7005 252.873 66.1645 266.971 57.0521 284.389C47.3649 302.91 45.165 328.137 51.3463 349.877C58.0061 373.303 75.5493 392.906 99.6907 403.901C112.84 409.891 129.121 414.065 145.239 415.577C151.424 416.157 171.116 415.868 177.575 415.103ZM1171.14 460.046C1170.13 459.918 1166.6 459.525 1163.29 459.176C1136.7 456.362 1108.75 446.987 1088.25 434.011C1060.55 416.469 1041.25 391.535 1032.44 361.899C1026.48 341.844 1025.47 319.303 1029.59 298.566C1035.82 267.209 1052.91 240.584 1079.46 220.891C1114.47 194.922 1165.95 183.388 1215.64 190.38C1256.93 196.187 1290.94 213.046 1314.61 239.431C1332.64 259.525 1343 283.072 1345.99 310.737C1346.77 317.928 1346.65 332.468 1345.75 340.096C1339.25 395.033 1300.25 437.022 1240.51 453.38C1222.4 458.339 1211.03 459.841 1189.73 460.086C1180.51 460.192 1172.15 460.174 1171.14 460.046ZM1202.81 415.376C1234.62 412.11 1260.54 400.407 1277.18 381.805C1288.45 369.21 1294.99 355.345 1297.56 338.588C1298.63 331.683 1298.61 317.287 1297.53 310.126C1291.74 271.567 1261.29 243.616 1216.16 235.44C1205.33 233.476 1198.13 232.836 1186.85 232.836C1136.26 232.836 1097.01 254.133 1081.91 289.77C1077.41 300.392 1075.33 311.354 1075.33 324.49C1075.33 341.822 1078.95 355.569 1087.12 369.266C1102.11 394.411 1130.55 410.475 1168.18 415.065C1175.95 416.011 1194.97 416.182 1202.82 415.377L1202.81 415.376Z" fill="#006B33"/>
</svg>
