<svg width="2500" height="783" viewBox="0 0 2500 783" fill="none" xmlns="http://www.w3.org/2000/svg">
<path d="M0 16.4993H2500V766.501H0V16.4993Z" fill="#FFC915"/>
<path d="M1031.87 239.902C1071.04 239.902 1108.82 253.168 1137.43 276.638V245.249H1191.11V586.848H1137.43V555.594C1109.31 578.928 1071.53 592.122 1031.87 592.122C983.263 592.122 939.028 574.139 907.362 541.499C875.972 509.275 858.751 464.832 858.751 416.289C858.751 367.681 876.041 323.098 907.362 290.734C939.096 257.958 983.331 239.902 1031.87 239.902ZM660.277 238.652C704.235 238.652 744.097 254.695 772.638 283.929C802.985 315.042 819.165 358.72 819.514 410.389V427.956H543.054C546.389 492.126 595.349 539.763 659.026 539.763C704.724 539.763 737.432 520.249 762.013 478.375L765.002 473.305L811.53 503.236L808.821 507.889C777.291 562.123 725.485 590.804 658.958 590.804C558.613 590.804 488.543 518.514 488.543 415.042C488.543 312.817 560.765 238.652 660.277 238.652ZM2088.26 238.652C2132.22 238.652 2172.08 254.695 2200.62 283.929C2230.97 315.042 2247.15 358.72 2247.5 410.389V427.956H1971.04C1974.37 492.126 2023.33 539.763 2087.02 539.763C2132.71 539.763 2165.42 520.249 2190 478.375L2192.99 473.305L2239.52 503.236L2236.81 507.889C2205.28 562.123 2153.47 590.804 2086.94 590.804C1986.6 590.804 1916.53 518.514 1916.46 415.042C1916.46 312.817 1988.75 238.652 2088.26 238.652ZM467.847 244.555V295.596H312.293V586.776H257.986V244.555H467.847ZM1744.1 239.902C1821.88 239.902 1870.21 293.303 1870.21 379.276V586.15H1815.9V379.276C1815.9 325.595 1785.14 290.942 1737.5 290.942C1676.25 290.942 1654.45 333.165 1654.45 372.679V586.223H1600.14V379.348C1600.14 324.833 1570.35 291.015 1522.36 291.015C1482.85 291.015 1440.63 321.707 1440.63 367.405V586.014H1386.32V244.483H1440.63V277.612C1463.05 253.164 1495 239.898 1532.29 239.898C1587.5 239.898 1617.71 267.817 1633.96 294.277C1658.68 259.625 1698.26 239.902 1744.1 239.902ZM1315.83 143.721V586.15H1261.53V143.721H1315.83ZM1029.17 294.277C962.987 294.277 913.053 346.78 913.053 416.361C913.053 485.597 962.987 537.747 1029.17 537.82C1097.85 537.82 1143.96 489 1143.96 416.361C1143.96 343.377 1097.85 294.277 1029.17 294.277ZM659.026 289.624C604.307 289.624 558.609 326.015 545.555 378.931H764.305C754.722 325.25 713.193 289.624 659.026 289.624ZM2086.94 289.624C2032.22 289.624 1986.53 326.015 1973.47 378.931H2192.22C2182.64 325.25 2141.11 289.624 2086.94 289.624Z" fill="#111111"/>
</svg>
