<svg width="2500" height="667" viewBox="0 0 2500 667" fill="none" xmlns="http://www.w3.org/2000/svg">
<g clip-path="url(#clip0_5638_4146)">
<path d="M166.666 409.562V385.812H249.874V416.021C249.81 419.99 250.596 423.926 252.181 427.566C253.765 431.205 256.111 434.463 259.06 437.12C262.009 439.776 265.493 441.771 269.277 442.968C273.062 444.166 277.059 444.539 280.999 444.062C287.731 444.976 294.56 443.326 300.133 439.44C305.705 435.554 309.613 429.716 311.083 423.083C313.31 415.485 313.121 407.382 310.541 399.896C294.437 359.396 184.395 341.062 170.416 277.937C167.57 264.07 167.393 249.788 169.895 235.854C178.479 185.167 223.02 166.833 278.312 166.833C322.333 166.833 382.999 177.083 382.999 245.042V267.167H305.708V247.75C305.941 243.923 305.343 240.091 303.955 236.516C302.567 232.942 300.421 229.711 297.666 227.045C294.91 224.378 291.611 222.34 287.993 221.07C284.375 219.8 280.525 219.328 276.708 219.687C270.189 218.97 263.64 220.738 258.368 224.639C253.096 228.539 249.49 234.285 248.27 240.729C247.401 246.109 247.585 251.607 248.812 256.917C257.916 293.042 375.499 312.479 388.395 377.75C391.618 394.666 391.794 412.022 388.916 429C381.395 480.75 335.229 500.167 279.416 500.167C220.833 500.167 166.666 479.125 166.666 409.562ZM1174.83 408.5V384.75H1256.98V414.417C1256.85 418.35 1257.57 422.264 1259.09 425.893C1260.62 429.522 1262.91 432.778 1265.8 435.441C1268.7 438.103 1272.14 440.109 1275.89 441.32C1279.63 442.531 1283.59 442.919 1287.5 442.458C1294.17 443.453 1300.97 441.895 1306.54 438.095C1312.12 434.294 1316.05 428.532 1317.56 421.958C1319.79 414.538 1319.61 406.602 1317.04 399.292C1301.46 359.396 1192.48 340.958 1178.54 277.937C1175.69 264.254 1175.51 250.149 1178 236.396C1186.65 186.25 1231.25 167.917 1285.42 167.917C1328.92 167.917 1389.02 178.708 1389.02 245.583V267.167H1312.27V248.292C1312.51 244.512 1311.94 240.723 1310.6 237.183C1309.25 233.643 1307.15 230.435 1304.46 227.775C1301.76 225.115 1298.52 223.067 1294.96 221.769C1291.41 220.47 1287.61 219.952 1283.83 220.25C1277.43 219.401 1270.95 221.061 1265.75 224.882C1260.55 228.704 1257.02 234.39 1255.92 240.75C1255.04 246.128 1255.22 251.626 1256.44 256.937C1265.02 293.062 1381.44 311.958 1394.42 376.667C1397.64 393.401 1397.81 410.578 1394.94 427.375C1387.42 479.167 1341.79 498.042 1286.6 498.042C1228.54 498.083 1174.83 476.979 1174.83 408.5ZM1469.02 419.854C1468.27 413.04 1468.1 406.176 1468.5 399.333V176H1546.87V406.312C1546.77 410.278 1546.95 414.246 1547.4 418.187C1549.14 424.682 1552.99 430.419 1558.32 434.51C1563.66 438.601 1570.2 440.818 1576.93 440.818C1583.65 440.818 1590.19 438.601 1595.53 434.51C1600.87 430.419 1604.71 424.682 1606.46 418.187C1606.92 414.247 1607.1 410.279 1607 406.312V176H1685.42V399.292C1685.42 405.229 1684.87 416.562 1684.87 419.812C1679.52 478.146 1633.87 496.896 1576.98 496.896C1520.08 496.896 1474.4 478.042 1469.02 419.812V419.854ZM2114.31 416.604C2113.52 409.766 2113.15 402.884 2113.23 396V265C2113.23 259.604 2113.75 249.896 2114.29 244.479C2121.27 186.25 2167.98 167.917 2223.27 167.917C2278.04 167.917 2326.33 186.25 2331.73 244.5C2332.37 251.32 2332.55 258.177 2332.25 265.021V275.167H2253.87V258C2253.89 254.017 2253.53 250.042 2252.81 246.125C2250.75 239.549 2246.65 233.802 2241.09 229.722C2235.54 225.642 2228.83 223.442 2221.94 223.442C2215.05 223.442 2208.33 225.642 2202.78 229.722C2197.23 233.802 2193.12 239.549 2191.06 246.125C2190.15 250.93 2189.8 255.823 2190 260.708V403.083C2189.91 407.049 2190.09 411.017 2190.54 414.958C2192.4 422.02 2196.72 428.187 2202.72 432.35C2208.72 436.513 2216 438.398 2223.27 437.667C2230.41 438.426 2237.57 436.54 2243.41 432.366C2249.25 428.191 2253.35 422.019 2254.94 415.021C2255.66 411.106 2255.84 407.11 2255.48 403.146V357.771H2223.81V312.458H2333.33V396C2333.41 402.849 2333.05 409.697 2332.25 416.5C2326.9 473.125 2278.08 493.083 2223.27 493.083C2168.46 493.083 2119.67 473.187 2114.31 416.562V416.604ZM1021.85 487.208L1019.77 199.187L966.02 487.208H887.645L834.479 199.187L832.395 487.208H755.041L761.479 176.542H887.645L926.833 419.271L966.02 176.542H1092.17L1099.15 487.208H1021.85ZM609.562 487.208L567.687 199.187L524.729 487.208H440.999L497.916 176.542H635.895L692.812 487.208H609.562ZM1921.58 483.979L1843.75 225.625L1848.04 483.958H1771.79V176.542H1886.67L1959.58 426.812L1955.4 176.542H2032.17V484L1921.58 483.979Z" fill="black"/>
</g>
<defs>
<clipPath id="clip0_5638_4146">
<rect width="2500" height="667" fill="white"/>
</clipPath>
</defs>
</svg>
