<svg width="194" height="55" viewBox="0 0 194 55" fill="none" xmlns="http://www.w3.org/2000/svg">
<rect x="0.5" y="0.0537109" width="193" height="54" rx="27" fill="#FF7518"/>
<path d="M49.5617 22.3537V21.1657H58.7957V22.3537H54.8177V34.0537H53.5217V22.3537H49.5617ZM62.6277 34.2697C60.0717 34.2697 58.3617 32.4337 58.3617 29.6977C58.3617 26.9797 60.0537 25.1077 62.5377 25.1077C64.8957 25.1077 66.4977 26.7817 66.4977 29.2477V29.8597H59.5677C59.6577 31.9837 60.7737 33.2077 62.6457 33.2077C64.0677 33.2077 64.9857 32.5957 65.3097 31.4437H66.4977C66.0297 33.2797 64.6797 34.2697 62.6277 34.2697ZM62.5377 26.1697C60.8997 26.1697 59.8197 27.2497 59.6037 28.9597H65.2557C65.2557 27.2857 64.1757 26.1697 62.5377 26.1697ZM67.7455 31.6057H68.9335C68.9335 32.6137 69.6895 33.2437 70.9135 33.2437C72.2635 33.2437 73.0555 32.6677 73.0555 31.7317C73.0555 31.0117 72.6955 30.5977 71.6695 30.3457L70.1755 29.9677C68.6635 29.5897 67.9255 28.7977 67.9255 27.6097C67.9255 26.0797 69.2035 25.1077 71.0755 25.1077C72.9115 25.1077 74.0995 26.1157 74.1535 27.7357H72.9475C72.9115 26.7277 72.2095 26.1337 71.0395 26.1337C69.8155 26.1337 69.1315 26.6557 69.1315 27.5917C69.1315 28.2577 69.5995 28.7257 70.5535 28.9597L72.0475 29.3377C73.5595 29.7157 74.2435 30.4177 74.2435 31.6777C74.2435 33.2437 72.9115 34.2697 70.9315 34.2697C68.9695 34.2697 67.7455 33.2257 67.7455 31.6057ZM78.2862 34.0537H77.0622V26.3857H75.3162V25.3417H77.0622V22.5877H78.2862V25.3417H80.0322V26.3857H78.2862V34.0537ZM82.2615 22.9477C81.7575 22.9477 81.3435 22.5337 81.3435 22.0297C81.3435 21.5257 81.7575 21.0937 82.2615 21.0937C82.7655 21.0937 83.1975 21.5257 83.1975 22.0297C83.1975 22.5337 82.7655 22.9477 82.2615 22.9477ZM81.6495 34.0537V25.3417H82.8915V34.0537H81.6495ZM86.7235 34.0537H85.4815V25.3417H86.5615L86.7055 26.5837C87.1375 25.6657 88.1095 25.1077 89.3335 25.1077C90.7015 25.1077 91.7275 25.8277 92.1415 26.9617C92.5375 25.8277 93.5995 25.1077 95.0035 25.1077C96.8935 25.1077 98.1355 26.3317 98.1355 28.3477V34.0537H96.9295V28.5997C96.9295 27.1057 96.1015 26.2237 94.7695 26.2237C93.3115 26.2237 92.4475 27.3217 92.4475 28.6717V34.0537H91.2235V28.5817C91.2235 27.1057 90.3775 26.2417 89.0635 26.2417C87.6055 26.2417 86.7235 27.3217 86.7235 28.6537V34.0537ZM100.022 29.6977C100.022 27.0337 101.894 25.1077 104.45 25.1077C107.006 25.1077 108.878 27.0337 108.878 29.6977C108.878 32.3437 107.006 34.2697 104.45 34.2697C101.894 34.2697 100.022 32.3437 100.022 29.6977ZM101.282 29.6797C101.282 31.7317 102.578 33.1537 104.45 33.1537C106.304 33.1537 107.618 31.7317 107.618 29.6797C107.618 27.6637 106.304 26.2237 104.45 26.2237C102.578 26.2237 101.282 27.6637 101.282 29.6797ZM112.106 34.0537H110.864V25.3417H111.944L112.124 26.8537C112.7 25.7377 113.852 25.1077 115.112 25.1077C117.506 25.1077 118.496 26.5297 118.496 28.7257V34.0537H117.254V28.9957C117.254 26.9617 116.336 26.2417 114.896 26.2417C113.114 26.2417 112.106 27.5377 112.106 29.4997V34.0537ZM121.584 22.9477C121.08 22.9477 120.666 22.5337 120.666 22.0297C120.666 21.5257 121.08 21.0937 121.584 21.0937C122.088 21.0937 122.52 21.5257 122.52 22.0297C122.52 22.5337 122.088 22.9477 121.584 22.9477ZM120.972 34.0537V25.3417H122.214V34.0537H120.972ZM127.306 34.2697C125.452 34.2697 124.354 33.2257 124.354 31.6957C124.354 30.0937 125.578 29.0857 127.612 28.9237L130.492 28.6897V28.4017C130.492 26.6917 129.466 26.1517 128.188 26.1517C126.676 26.1517 125.776 26.8357 125.776 28.0057H124.642C124.642 26.2417 126.082 25.1077 128.224 25.1077C130.24 25.1077 131.716 26.1157 131.716 28.4197V34.0537H130.672L130.51 32.5237C129.97 33.6217 128.782 34.2697 127.306 34.2697ZM127.594 33.2617C129.43 33.2617 130.492 31.9837 130.492 30.0937V29.6257L127.918 29.8237C126.28 29.9677 125.614 30.6877 125.614 31.6597C125.614 32.7217 126.406 33.2617 127.594 33.2617ZM135.504 34.0537H134.262V20.9317H135.504V34.0537ZM137.408 31.6057H138.596C138.596 32.6137 139.352 33.2437 140.576 33.2437C141.926 33.2437 142.718 32.6677 142.718 31.7317C142.718 31.0117 142.358 30.5977 141.332 30.3457L139.838 29.9677C138.326 29.5897 137.588 28.7977 137.588 27.6097C137.588 26.0797 138.866 25.1077 140.738 25.1077C142.574 25.1077 143.762 26.1157 143.816 27.7357H142.61C142.574 26.7277 141.872 26.1337 140.702 26.1337C139.478 26.1337 138.794 26.6557 138.794 27.5917C138.794 28.2577 139.262 28.7257 140.216 28.9597L141.71 29.3377C143.222 29.7157 143.906 30.4177 143.906 31.6777C143.906 33.2437 142.574 34.2697 140.594 34.2697C138.632 34.2697 137.408 33.2257 137.408 31.6057Z" fill="#FBFBFB"/>
</svg>
