<svg width="2500" height="694" viewBox="0 0 2500 694" fill="none" xmlns="http://www.w3.org/2000/svg">
<g clip-path="url(#clip0_5638_4128)">
<path fill-rule="evenodd" clip-rule="evenodd" d="M1962.69 277.279C1985.59 272.858 2144.32 277.279 2180.89 277.279C2216.29 274.673 2251.88 276.021 2286.98 281.297C2441.69 321.482 2440.49 562.594 2272.92 592.733C2248 597.154 2092.08 592.733 2054.31 592.733C2018.89 595.102 1983.32 593.62 1948.22 588.313C1927.07 582.086 1907.43 571.575 1890.51 557.434C1873.6 543.292 1859.77 525.823 1849.9 506.111C1840.02 486.399 1834.31 464.866 1833.11 442.851C1831.91 420.837 1835.26 398.811 1842.93 378.144C1851.78 351.814 1867.71 328.432 1888.98 310.567C1910.25 292.702 1936.03 281.045 1963.49 276.877L1962.69 277.279ZM2497.55 464.542C2502.98 422.121 2497.79 379.015 2482.42 339.101C2467.06 299.188 2442.02 263.72 2409.55 235.888C2378.76 209.781 2342.07 191.574 2302.65 182.843C2251.75 176.387 2200.37 174.638 2149.15 177.619H1988.4C1943.71 176.58 1899.6 187.989 1861.02 210.571C1825.69 231.993 1795.93 261.451 1774.14 296.55C1752.35 331.649 1739.16 371.396 1735.63 412.556C1732.11 453.717 1738.35 495.128 1753.86 533.42C1769.36 571.712 1793.68 605.803 1824.85 632.918C1905.22 701.635 1983.18 691.589 2084.85 691.589H2245.59C2308.47 692.452 2369.36 669.545 2416.07 627.448C2462.79 585.352 2491.89 527.171 2497.55 464.542ZM984.174 247.14C994.374 270.903 1007.9 293.094 1024.36 313.043L1150.94 498.7C1174.25 535.268 1206.4 587.911 1233.72 622.872C1248.68 645.422 1269.17 663.763 1293.22 676.145C1317.28 688.527 1344.12 694.536 1371.16 693.598C1397.06 691.372 1422.04 682.896 1443.94 668.898C1465.85 654.9 1484.04 635.797 1496.94 613.228C1524.26 573.042 1551.99 532.857 1580.93 489.457L1728.81 270.447C1735.31 262.025 1739.12 251.829 1739.71 241.202C1740.31 230.576 1737.67 220.019 1732.14 210.923C1726.61 201.828 1718.46 194.621 1708.75 190.254C1699.05 185.886 1688.25 184.564 1677.77 186.46C1665.9 190.749 1655.05 197.467 1645.91 206.185C1636.78 214.903 1629.56 225.43 1624.73 237.093L1540.74 361.668C1513.01 401.853 1484.88 444.851 1456.75 485.438C1442.29 506.335 1429.43 525.624 1416.57 547.324C1403.71 569.024 1386.03 595.546 1354.28 587.509C1331.51 576.375 1313.22 557.804 1302.44 534.866L1262.26 472.981C1234.13 432.796 1207.2 392.61 1177.87 349.21C1148.53 305.81 1123.22 268.84 1093.88 225.44C1089.21 212.592 1080.4 201.666 1068.82 194.388C1057.25 187.11 1043.59 183.897 1029.99 185.254C1022.81 186.071 1015.88 188.355 1009.62 191.965C1003.37 195.575 997.924 200.434 993.627 206.238C989.33 212.043 986.273 218.669 984.647 225.706C983.021 232.742 982.86 240.038 984.174 247.14ZM0.84001 245.934C10.609 269.918 24.1779 292.171 41.0253 311.838L209.402 559.379C249.587 622.068 289.772 696.813 387.423 693.598C475.83 690.383 512.399 616.442 557.406 549.735L683.99 364.079C697.251 343.986 711.718 323.894 726.185 302.193C745.223 283.039 756.649 257.617 758.333 230.664C757.358 223.676 754.989 216.955 751.365 210.901C747.742 204.847 742.939 199.583 737.241 195.422C731.543 191.261 725.066 188.288 718.197 186.679C711.327 185.071 704.204 184.859 697.251 186.058C685.204 189.879 674.158 196.333 664.914 204.952C655.67 213.57 648.459 224.138 643.805 235.888C614.469 278.886 588.349 316.66 559.416 361.668C530.482 406.675 503.96 442.038 475.026 482.224C460.158 503.522 447.7 522.409 434.841 544.109C430.095 556.508 421.735 567.197 410.845 574.792C399.955 582.386 387.035 586.537 373.759 586.705C350.082 576.461 331.139 557.662 320.715 534.063C251.194 434.805 178.861 325.903 110.144 224.234C105.379 211.537 96.5993 200.742 85.1397 193.489C73.68 186.236 60.1663 182.921 46.6512 184.049C39.4756 184.865 32.5447 187.15 26.2897 190.76C20.0347 194.37 14.5894 199.228 10.2925 205.033C5.99558 210.837 2.93898 217.464 1.31282 224.5C-0.313347 231.537 -0.474286 238.833 0.84001 245.934ZM860.805 186.46C809.368 197.31 817.807 241.112 817.807 295.764V602.779C814.109 625.833 817.326 649.466 827.05 670.693C832.609 678.84 840.346 685.261 849.378 689.224C858.41 693.188 868.374 694.534 878.134 693.11C887.894 691.686 897.057 687.549 904.58 681.169C912.102 674.79 917.682 666.426 920.681 657.03C925.504 640.955 923.092 456.103 923.092 429.179V275.269C926.694 252.384 923.624 228.945 914.252 207.758C908.641 199.286 900.647 192.666 891.278 188.733C881.91 184.799 871.586 183.729 861.609 185.656L860.805 186.46ZM863.618 6.55055e-05C856.099 4.94059 849.672 11.3683 844.731 18.8872L804.546 56.6613C780.435 80.3706 800.527 91.2207 831.47 120.556L850.357 139.443C874.87 163.956 884.113 145.873 916.261 113.724C961.268 70.7262 959.661 80.3707 890.14 10.8501C887.612 6.29511 883.607 2.73795 878.786 0.765457C873.964 -1.20703 868.614 -1.47701 863.618 6.55055e-05Z" fill="#0072B8"/>
</g>
<defs>
<clipPath id="clip0_5638_4128">
<rect width="2500" height="694" fill="white"/>
</clipPath>
</defs>
</svg>
