<svg width="20" height="21" viewBox="0 0 20 21" fill="none" xmlns="http://www.w3.org/2000/svg">
<path d="M12.4531 3.17871C13.5132 3.46322 14.4799 4.02156 15.256 4.7977C16.0321 5.57384 16.5905 6.54047 16.875 7.60059" stroke="#191020" stroke-width="1.5" stroke-linecap="round" stroke-linejoin="round"/>
<path d="M11.8047 5.59277C12.4423 5.76211 13.0238 6.09698 13.4903 6.56345C13.9567 7.02993 14.2916 7.61143 14.4609 8.24902" stroke="#191020" stroke-width="1.5" stroke-linecap="round" stroke-linejoin="round"/>
<path d="M7.22656 9.80386C7.8697 11.132 8.94365 12.2032 10.2734 12.8429C10.3715 12.8894 10.48 12.9095 10.5882 12.9013C10.6965 12.893 10.8007 12.8568 10.8906 12.796L12.8437 11.4914C12.93 11.4328 13.0298 11.3971 13.1336 11.3876C13.2374 11.378 13.342 11.3949 13.4375 11.4367L17.0937 13.007C17.2187 13.059 17.3231 13.1506 17.3909 13.2678C17.4586 13.385 17.486 13.5212 17.4687 13.6554C17.3529 14.5599 16.9114 15.3912 16.2269 15.9937C15.5424 16.5962 14.6619 16.9287 13.75 16.9289C10.9321 16.9289 8.22956 15.8094 6.23699 13.8169C4.24442 11.8243 3.125 9.12178 3.125 6.30386C3.12521 5.39198 3.45767 4.51142 4.06018 3.82695C4.66268 3.14248 5.49395 2.70099 6.39844 2.58511C6.53269 2.56786 6.66888 2.59523 6.78605 2.66299C6.90322 2.73075 6.99486 2.83515 7.04687 2.96011L8.61719 6.62417C8.65802 6.71819 8.67511 6.82082 8.66693 6.923C8.65876 7.02518 8.62558 7.12378 8.57031 7.21011L7.26562 9.19448C7.20754 9.28424 7.17345 9.38739 7.16661 9.49408C7.15977 9.60077 7.18041 9.70743 7.22656 9.80386V9.80386Z" stroke="#191020" stroke-width="1.5" stroke-linecap="round" stroke-linejoin="round"/>
</svg>
