<svg width="24" height="24" viewBox="0 0 24 24" fill="none" xmlns="http://www.w3.org/2000/svg">
<path d="M12 0.0537109C18.6274 0.0537109 24 5.42629 24 12.0537C24 18.0433 19.6118 23.0077 13.875 23.9079V15.5225H16.6711L17.2031 12.0537H13.875V9.80268C13.875 9.54787 13.9085 9.2948 13.9864 9.06089C14.1623 8.53255 14.5647 8.10202 15.3186 7.97031C15.4739 7.94316 15.6442 7.92871 15.8306 7.92871H17.3438V4.97559C17.3438 4.97559 15.9705 4.74121 14.6576 4.74121C11.9165 4.74121 10.125 6.40246 10.125 9.40996V12.0537H7.07812V15.5225H10.125V23.9079C4.38825 23.0077 0 18.0433 0 12.0537C0 5.42629 5.37258 0.0537109 12 0.0537109Z" fill="#FBFBFB"/>
</svg>
