<svg width="24" height="25" viewBox="0 0 24 25" fill="none" xmlns="http://www.w3.org/2000/svg">
<path d="M9.33335 12.0537C9.33335 13.5264 10.5273 14.7203 12 14.7203C13.4728 14.7203 14.6667 13.5264 14.6667 12.0537C14.6667 10.5809 13.4728 9.38701 12 9.38701C10.5273 9.38701 9.33335 10.5809 9.33335 12.0537Z" fill="#FBFBFB"/>
<path fill-rule="evenodd" clip-rule="evenodd" d="M15.2326 5.5418C14.3891 5.5033 14.136 5.49518 12 5.49518C9.86389 5.49518 9.61086 5.5033 8.76727 5.5418C7.9873 5.5774 7.56371 5.70771 7.28181 5.81724C6.9084 5.96236 6.6419 6.13574 6.36193 6.41568C6.082 6.69561 5.90862 6.96214 5.76353 7.33552C5.65397 7.61742 5.52365 8.04102 5.48806 8.82098C5.44956 9.66457 5.44143 9.91761 5.44143 12.0537C5.44143 14.1898 5.44956 14.4428 5.48806 15.2863C5.52365 16.0663 5.65397 16.4899 5.76353 16.7718C5.90862 17.1452 6.082 17.4117 6.36193 17.6917C6.6419 17.9716 6.9084 18.145 7.28181 18.2901C7.56371 18.3997 7.9873 18.53 8.76727 18.5655C9.61077 18.604 9.86371 18.6122 12 18.6122C14.1362 18.6122 14.3892 18.604 15.2326 18.5655C16.0126 18.53 16.4362 18.3997 16.7181 18.2901C17.0915 18.145 17.358 17.9716 17.6379 17.6917C17.9179 17.4117 18.0913 17.1452 18.2364 16.7718C18.3459 16.4899 18.4763 16.0663 18.5118 15.2863C18.5503 14.4428 18.5585 14.1898 18.5585 12.0537C18.5585 9.91761 18.5503 9.66457 18.5118 8.82098C18.4763 8.04102 18.3459 7.61742 18.2364 7.33552C18.0913 6.96214 17.9179 6.69561 17.6379 6.41568C17.358 6.13574 17.0915 5.96236 16.7181 5.81724C16.4362 5.70771 16.0126 5.5774 15.2326 5.5418ZM7.89192 12.0537C7.89192 9.78483 9.73116 7.94558 12 7.94558C14.2688 7.94558 16.1081 9.78483 16.1081 12.0537C16.1081 14.3225 14.2688 16.1618 12 16.1618C9.73116 16.1618 7.89192 14.3225 7.89192 12.0537ZM17.2304 7.78327C17.2304 8.31348 16.8005 8.74326 16.2704 8.74326C15.7402 8.74326 15.3104 8.31348 15.3104 7.78327C15.3104 7.25308 15.7402 6.8233 16.2704 6.8233C16.8005 6.8233 17.2304 7.25308 17.2304 7.78327Z" fill="#FBFBFB"/>
<path fill-rule="evenodd" clip-rule="evenodd" d="M24 12.0537C24 18.6811 18.6274 24.0537 12 24.0537C5.37258 24.0537 0 18.6811 0 12.0537C0 5.42629 5.37258 0.0537109 12 0.0537109C18.6274 0.0537109 24 5.42629 24 12.0537ZM8.70158 4.10187C9.55486 4.06293 9.8273 4.05371 12 4.05371C14.1726 4.05371 14.445 4.06293 15.2983 4.10187C16.1498 4.14071 16.7314 4.27593 17.2402 4.47371C17.7663 4.67815 18.2124 4.95171 18.6572 5.39646C19.1019 5.84118 19.3755 6.28733 19.5799 6.81339C19.7777 7.32224 19.9129 7.9038 19.9518 8.75529C19.9907 9.60857 19.9999 9.88101 19.9999 12.0537C19.9999 14.2263 19.9907 14.4988 19.9518 15.352C19.9129 16.2035 19.7777 16.7851 19.5799 17.2939C19.3755 17.82 19.1019 18.2662 18.6572 18.7109C18.2124 19.1556 17.7663 19.4292 17.2402 19.6336C16.7314 19.8314 16.1498 19.9666 15.2983 20.0055C14.445 20.0444 14.1726 20.0536 12 20.0536C9.8273 20.0536 9.55486 20.0444 8.70158 20.0055C7.85009 19.9666 7.26852 19.8314 6.75965 19.6336C6.23359 19.4292 5.78743 19.1556 5.34272 18.7109C4.89797 18.2662 4.6244 17.82 4.41997 17.2939C4.22219 16.7851 4.08697 16.2035 4.04812 15.352C4.00919 14.4988 4 14.2263 4 12.0537C4 9.88101 4.00919 9.60857 4.04812 8.75529C4.08697 7.9038 4.22219 7.32224 4.41997 6.81339C4.6244 6.28733 4.89797 5.84118 5.34272 5.39646C5.78743 4.95171 6.23359 4.67815 6.75965 4.47371C7.26852 4.27593 7.85009 4.14071 8.70158 4.10187Z" fill="#FBFBFB"/>
</svg>
