<svg width="24" height="25" viewBox="0 0 24 25" fill="none" xmlns="http://www.w3.org/2000/svg">
<g clip-path="url(#clip0_323_7636)">
<path fill-rule="evenodd" clip-rule="evenodd" d="M24 12.0537C24 18.6811 18.6274 24.0537 12 24.0537C5.37258 24.0537 0 18.6811 0 12.0537C0 5.42629 5.37258 0.0537109 12 0.0537109C18.6274 0.0537109 24 5.42629 24 12.0537ZM5.23125 19.0537H8.13375V9.70663H5.23125V19.0537ZM5 6.73469C5 7.66283 5.75281 8.4316 6.68094 8.4316C7.60875 8.4316 8.36188 7.66283 8.36188 6.73469C8.36188 6.28886 8.18478 5.8613 7.86954 5.54606C7.5543 5.23081 7.12675 5.05371 6.68094 5.05371C6.23513 5.05371 5.80757 5.23081 5.49234 5.54606C5.1771 5.8613 5 6.28886 5 6.73469ZM16.1006 19.0537H19V13.9192C19 11.4067 18.46 9.47225 15.5225 9.47225C14.1103 9.47225 13.1637 10.2473 12.7762 10.9817H12.7356V9.70663H9.95188V19.0537H12.8512V14.4255C12.8512 13.2067 13.0825 12.0286 14.5916 12.0286C16.0788 12.0286 16.1006 13.4192 16.1006 14.5036V19.0537Z" fill="#FBFBFB"/>
</g>
<defs>
<clipPath id="clip0_323_7636">
<rect width="24" height="24" fill="white" transform="translate(0 0.0537109)"/>
</clipPath>
</defs>
</svg>

