<svg width="20" height="21" viewBox="0 0 20 21" fill="none" xmlns="http://www.w3.org/2000/svg">
<path d="M10 10.6787C11.3807 10.6787 12.5 9.55942 12.5 8.17871C12.5 6.798 11.3807 5.67871 10 5.67871C8.61929 5.67871 7.5 6.798 7.5 8.17871C7.5 9.55942 8.61929 10.6787 10 10.6787Z" stroke="#191020" stroke-width="1.5" stroke-linecap="round" stroke-linejoin="round"/>
<path d="M16.25 8.17871C16.25 13.8037 10 18.1787 10 18.1787C10 18.1787 3.75 13.8037 3.75 8.17871C3.75 6.52111 4.40848 4.9314 5.58058 3.75929C6.75269 2.58719 8.3424 1.92871 10 1.92871C11.6576 1.92871 13.2473 2.58719 14.4194 3.75929C15.5915 4.9314 16.25 6.52111 16.25 8.17871V8.17871Z" stroke="#191020" stroke-width="1.5" stroke-linecap="round" stroke-linejoin="round"/>
</svg>
