<svg width="129" height="25" viewBox="0 0 129 25" fill="none" xmlns="http://www.w3.org/2000/svg">
<g clip-path="url(#clip0_318_513)">
<path d="M12.5001 18.3137L5.44666 22.2619L7.02199 14.3336L1.0874 8.84551L9.11444 7.89377L12.5001 0.553711L15.8857 7.89377L23.9127 8.84551L17.9782 14.3336L19.5535 22.2619L12.5001 18.3137Z" fill="#FFC107"/>
</g>
<g clip-path="url(#clip1_318_513)">
<path d="M38.5006 18.3137L31.4472 22.2619L33.0225 14.3336L27.0879 8.84551L35.1149 7.89377L38.5006 0.553711L41.8862 7.89377L49.9132 8.84551L43.9787 14.3336L45.554 22.2619L38.5006 18.3137Z" fill="#FFC107"/>
</g>
<g clip-path="url(#clip2_318_513)">
<path d="M64.5006 18.3137L57.4472 22.2619L59.0225 14.3336L53.0879 8.84551L61.1149 7.89377L64.5006 0.553711L67.8862 7.89377L75.9132 8.84551L69.9787 14.3336L71.554 22.2619L64.5006 18.3137Z" fill="#FFC107"/>
</g>
<g clip-path="url(#clip3_318_513)">
<path d="M90.5006 18.3137L83.4472 22.2619L85.0225 14.3336L79.0879 8.84551L87.1149 7.89377L90.5006 0.553711L93.8862 7.89377L101.913 8.84551L95.9787 14.3336L97.554 22.2619L90.5006 18.3137Z" fill="#FFC107"/>
</g>
<g clip-path="url(#clip4_318_513)">
<path d="M116.501 18.3137L109.447 22.2619L111.022 14.3336L105.088 8.84551L113.115 7.89377L116.501 0.553711L119.886 7.89377L127.913 8.84551L121.979 14.3336L123.554 22.2619L116.501 18.3137Z" fill="#FFC107"/>
</g>
<defs>
<clipPath id="clip0_318_513">
<rect width="24" height="24" fill="white" transform="translate(0.5 0.0537109)"/>
</clipPath>
<clipPath id="clip1_318_513">
<rect width="24" height="24" fill="white" transform="translate(26.5 0.0537109)"/>
</clipPath>
<clipPath id="clip2_318_513">
<rect width="24" height="24" fill="white" transform="translate(52.5 0.0537109)"/>
</clipPath>
<clipPath id="clip3_318_513">
<rect width="24" height="24" fill="white" transform="translate(78.5 0.0537109)"/>
</clipPath>
<clipPath id="clip4_318_513">
<rect width="24" height="24" fill="white" transform="translate(104.5 0.0537109)"/>
</clipPath>
</defs>
</svg>
