<svg width="24" height="25" viewBox="0 0 24 25" fill="none" xmlns="http://www.w3.org/2000/svg">
<path fill-rule="evenodd" clip-rule="evenodd" d="M24 12.0537C24 18.6811 18.6274 24.0537 12 24.0537C5.37258 24.0537 0 18.6811 0 12.0537C0 5.42629 5.37258 0.0537109 12 0.0537109C18.6274 0.0537109 24 5.42629 24 12.0537ZM18.4581 9.96339C18.4581 14.1189 15.2942 18.9137 9.50781 18.9137C7.73341 18.9137 6.07642 18.3918 4.69995 17.4916C4.94785 17.5242 5.19574 17.5372 5.45016 17.5372C6.92449 17.5372 8.28139 17.0349 9.35777 16.1934C7.9813 16.1673 6.82011 15.2605 6.42217 14.008C6.61788 14.0471 6.81358 14.0667 7.01581 14.0667C7.30285 14.0667 7.58336 14.0276 7.84431 13.9558C6.4026 13.6622 5.31969 12.3967 5.31969 10.8702V10.831C5.74372 11.0659 6.22646 11.2094 6.74183 11.2224C5.89376 10.6614 5.33926 9.69592 5.33926 8.60649C5.33926 8.03241 5.49582 7.49096 5.76329 7.02779C7.3159 8.93267 9.63176 10.1852 12.2477 10.3157C12.189 10.0873 12.1629 9.84596 12.1629 9.59807C12.1629 7.8628 13.572 6.45371 15.3073 6.45371C16.214 6.45371 17.0295 6.83208 17.6036 7.44529C18.3211 7.30178 18.9931 7.04083 19.5998 6.68204C19.3649 7.4192 18.8691 8.03241 18.2168 8.42383C18.8561 8.34554 19.4628 8.17593 20.0238 7.92804C19.5998 8.56082 19.0648 9.11533 18.4516 9.55893C18.4581 9.6894 18.4581 9.82639 18.4581 9.96339Z" fill="#FBFBFB"/>
</svg>
