<svg width="1440" height="620" viewBox="0 0 1440 620" fill="none" xmlns="http://www.w3.org/2000/svg">
<path d="M24.5986 601.729C66.6875 492.836 181.076 416.905 296.306 421.418C388.621 425.048 481.216 474.687 569.509 446.532C633.952 425.93 679.875 367.56 710.553 306.54C741.231 245.521 760.873 179.008 795.573 120.244C830.273 61.4813 885.082 8.99671 952.237 1.83526C1009.01 -4.14897 1063.54 23.0253 1113.2 51.2787C1162.87 79.5321 1214.12 110.434 1271.08 112.985" stroke="#0B2B4F" stroke-opacity="0.15" stroke-miterlimit="10"/>
<path d="M23.4766 598.1C49.1975 533.843 101.481 482.928 161.902 455.263C198.473 438.586 237.943 430.149 278.909 430.149C284.053 430.149 289.198 430.345 294.342 430.541C336.992 432.798 380.016 443 422.198 450.652C470.741 459.383 518.629 464.681 565.768 450.26C616.742 434.858 656.68 400.816 687.826 357.553C696.711 345.193 704.755 332.047 712.05 318.705C725.893 293.1 737.491 265.926 748.714 238.752C763.96 201.767 778.644 164.587 798.566 130.055C801.092 125.64 803.71 121.324 806.516 116.909C830.46 79.3359 863.009 45.5888 901.731 27.2437C919.314 18.9051 938.021 13.8037 957.569 12.4303C994.139 9.97777 1029.77 20.9652 1064.19 35.7786C1083.55 44.1173 1102.35 53.5351 1120.59 62.8548C1136.68 71.0954 1152.86 79.3359 1169.23 86.6936C1204.49 102.684 1240.5 114.947 1279.13 114.653" stroke="#0B2B4F" stroke-opacity="0.15" stroke-miterlimit="10"/>
<path d="M22.2603 594.47C48.5424 530.703 102.603 482.143 162.182 458.304C198.192 443.883 236.352 438.095 277.038 439.174C282.089 439.272 287.233 439.567 292.284 439.861C334.653 442.706 377.677 451.437 419.486 457.519C467.467 464.583 514.887 467.722 562.027 454.086C613.843 438.978 654.716 410.136 687.732 368.737C697.179 356.965 705.783 344.113 713.453 330.771C728.044 305.461 740.296 277.894 751.707 250.328C767.233 212.853 781.73 174.887 801.559 139.669C804.084 135.156 806.703 130.741 809.509 126.327C833.453 87.9689 866.656 53.4369 906.22 35.9748C924.271 28.0285 943.165 23.6139 962.9 23.0253C999.751 21.8481 1035.39 34.2089 1070.37 48.9242C1090.01 57.1648 1109.37 66.0921 1127.98 74.5289C1144.44 81.9846 1160.9 89.2442 1177.37 95.6208C1212.91 109.257 1248.82 118.871 1287.08 116.517" stroke="#0B2B4F" stroke-opacity="0.15" stroke-miterlimit="10"/>
<path d="M21.1382 590.84C48.075 527.662 103.726 481.358 162.557 461.247C198.098 449.083 234.949 445.943 275.168 448.003C280.218 448.298 285.269 448.592 290.32 448.984C332.409 452.32 375.526 459.776 416.96 464.288C464.474 469.586 511.333 470.861 558.379 457.814C611.037 443.196 652.939 419.358 687.732 379.921C697.74 368.639 706.812 356.18 714.949 342.936C730.382 317.822 743.196 290.059 754.794 262.1C770.6 224.036 784.817 185.384 804.552 149.479C807.077 144.868 809.696 140.355 812.502 135.843C836.446 96.7 870.304 61.3832 910.803 44.804C929.228 37.2501 948.402 33.6204 968.324 33.7185C1005.36 33.9147 1041.18 47.4527 1076.73 62.0699C1096.74 70.2124 1116.48 78.5511 1135.56 86.2031C1152.3 92.874 1169.04 99.1525 1185.78 104.45C1221.7 115.83 1257.43 122.697 1295.4 118.184" stroke="#0B2B4F" stroke-opacity="0.15" stroke-miterlimit="10"/>
<path d="M19.9224 587.112C47.5139 524.523 104.848 480.475 162.837 464.19C197.911 454.38 233.36 453.792 273.204 456.931C278.161 457.323 283.211 457.814 288.262 458.206C330.07 462.13 373.188 468.115 414.248 471.156C461.201 474.785 507.592 474.001 554.544 461.64C608.044 447.513 650.881 428.677 687.545 391.104C698.114 380.411 707.748 368.148 716.353 355.101C732.627 330.281 746.002 302.126 757.787 273.774C773.78 235.22 787.81 195.783 807.545 159.093C810.07 154.384 812.689 149.773 815.495 145.162C839.439 105.235 873.952 69.1334 915.293 53.3389C934.186 46.1775 953.547 43.2344 973.562 44.1173C1010.79 45.5889 1046.8 60.5004 1082.9 74.9214C1103.29 83.0639 1123.49 90.8139 1142.95 97.4849C1160.06 103.469 1177.09 108.767 1193.92 112.985C1230.12 122.01 1265.75 126.131 1303.35 119.656" stroke="#0B2B4F" stroke-opacity="0.15" stroke-miterlimit="10"/>
<path d="M18.7056 583.482C46.9519 521.384 105.876 479.69 163.117 467.133C197.724 459.58 231.769 461.64 271.332 465.76C276.289 466.25 281.246 466.839 286.297 467.33C327.825 471.842 371.036 476.355 411.628 477.827C458.113 479.69 503.943 477.042 550.896 465.171C605.237 451.535 649.01 437.507 687.544 401.994C698.581 391.791 708.776 379.921 717.848 366.873C734.964 342.348 748.9 313.898 760.872 285.154C777.147 246.011 790.896 205.888 810.537 168.511C813.063 163.704 815.681 158.995 818.394 154.286C842.338 113.574 877.505 76.6871 919.781 61.7756C939.049 55.0066 958.69 52.8483 978.893 54.418C1016.4 57.2629 1052.41 73.4498 1089.07 87.6746C1109.84 95.7189 1130.41 102.978 1150.24 108.767C1167.64 113.966 1185.03 118.282 1201.96 121.422C1238.53 128.191 1273.98 129.564 1311.3 121.029" stroke="#0B2B4F" stroke-opacity="0.15" stroke-miterlimit="10"/>
<path d="M17.583 579.853C46.484 518.343 107.092 478.808 163.397 470.175C197.536 464.975 230.272 469.586 269.368 474.687C274.231 475.374 279.189 475.963 284.239 476.551C325.486 481.554 368.697 484.694 408.916 484.694C454.933 484.89 500.295 480.181 547.061 468.997C602.244 455.852 646.952 446.826 687.45 413.275C699.048 403.661 709.711 391.987 719.251 379.136C737.115 354.905 751.706 326.063 763.865 296.926C780.42 257.293 793.888 216.385 813.53 178.321C816.055 173.416 818.674 168.609 821.386 163.9C845.33 122.403 881.153 84.7315 924.27 70.7029C944.005 64.3263 963.834 62.9529 984.13 65.2092C1021.82 69.4276 1058.02 86.7917 1095.24 100.918C1116.38 108.963 1137.43 115.536 1157.63 120.539C1175.4 124.953 1192.98 128.387 1210.19 130.447C1247.14 134.862 1282.31 133.586 1319.34 122.991" stroke="#0B2B4F" stroke-opacity="0.15" stroke-miterlimit="10"/>
<path d="M16.3677 576.223C45.9234 515.203 108.121 478.023 163.679 473.118C197.256 470.175 228.683 477.434 267.404 483.615C272.268 484.399 277.225 485.086 282.182 485.773C323.149 491.365 366.453 493.032 406.298 491.561C451.753 489.893 496.648 483.418 543.414 472.823C599.439 460.168 645.175 456.146 687.451 424.459C699.61 415.335 710.834 404.054 720.748 391.3C739.454 367.265 754.606 338.129 766.952 308.699C783.788 268.477 796.976 226.881 816.523 188.131C819.049 183.128 821.668 178.223 824.38 173.416C848.324 131.134 884.801 92.6778 928.854 79.5321C948.963 73.5479 969.072 72.8612 989.555 75.9023C1027.44 81.4941 1063.82 100.134 1101.61 114.162C1123.02 122.108 1144.54 128.191 1165.21 132.311C1183.35 136.039 1201.22 138.393 1218.52 139.374C1255.74 141.435 1290.82 137.412 1327.58 124.855" stroke="#0B2B4F" stroke-opacity="0.15" stroke-miterlimit="10"/>
<path d="M15.2451 572.593C45.4556 512.162 109.337 477.238 164.053 476.159C197.163 475.472 227.279 485.38 265.627 492.542C270.491 493.425 275.354 494.308 280.218 494.994C320.904 501.175 364.208 501.371 403.678 498.33C448.667 494.896 493 486.558 539.672 476.551C596.539 464.386 643.211 465.269 687.357 435.643C700.078 427.108 711.769 416.12 722.151 403.367C741.699 379.626 757.318 350.196 769.851 320.274C786.968 279.562 799.875 237.084 819.329 197.745C821.855 192.742 824.474 187.739 827.186 182.735C851.223 139.669 888.355 100.33 933.156 88.165C953.733 82.5732 974.029 82.6713 994.606 86.3992C1032.67 93.3644 1069.15 113.181 1107.5 127.112C1129.29 134.96 1151.18 140.453 1172.31 143.789C1190.74 146.732 1208.98 148.105 1226.38 148.007C1263.97 147.811 1298.86 141.042 1335.25 126.327" stroke="#0B2B4F" stroke-opacity="0.15" stroke-miterlimit="10"/>
<path d="M14.0293 568.865C44.8009 509.023 110.366 476.355 164.333 479.004C196.975 480.671 225.689 493.13 263.663 501.273C268.433 502.352 273.297 503.235 278.16 504.02C318.566 510.691 361.87 509.513 400.966 505.001C445.487 499.899 489.259 489.501 535.838 480.181C593.546 468.605 641.247 474.393 687.17 446.63C700.452 438.586 712.611 427.893 723.554 415.335C743.85 391.889 760.124 362.066 772.845 331.851C790.241 290.55 802.868 247.385 822.322 207.359C824.848 202.258 827.373 197.156 830.179 192.055C854.216 148.204 892.003 108.08 937.739 96.798C958.69 91.5986 979.267 92.3834 1000.03 96.8961C1038.38 105.137 1074.95 126.327 1113.86 140.061C1136.02 147.909 1158.38 152.814 1179.8 155.267C1198.6 157.523 1217.02 157.916 1234.7 156.738C1272.58 154.188 1307.37 144.77 1343.38 127.994" stroke="#0B2B4F" stroke-opacity="0.15" stroke-miterlimit="10"/>
<path d="M12.9072 565.235C44.3336 505.884 111.489 475.57 164.708 481.947C196.882 485.871 224.193 500.979 261.793 510.2C266.563 511.377 271.333 512.358 276.196 513.241C316.321 520.501 359.719 517.852 398.348 511.868C442.307 505.001 485.705 492.738 532.19 484.007C590.74 472.921 639.47 483.713 687.171 457.814C701.013 450.358 713.733 439.959 725.051 427.5C746.188 404.25 763.024 374.231 775.931 343.525C793.515 301.733 806.048 257.784 825.316 217.071C827.747 211.872 830.366 206.672 833.172 201.571C857.21 156.935 895.651 116.026 942.229 105.627C963.648 100.82 984.411 102.39 1005.36 107.589C1043.9 117.203 1080.65 139.571 1120.12 153.207C1142.67 160.957 1165.39 165.371 1187.28 166.941C1206.36 168.413 1225.16 167.824 1242.93 165.568C1281.18 160.761 1315.79 148.596 1351.52 129.76" stroke="#0B2B4F" stroke-opacity="0.15" stroke-miterlimit="10"/>
<path d="M11.6914 561.606C43.7725 502.842 112.611 474.785 164.988 484.988C196.695 491.168 222.697 508.925 259.922 519.127C264.599 520.403 269.369 521.58 274.232 522.463C314.076 530.311 357.475 526.289 395.822 518.637C439.314 510.004 482.151 495.975 528.542 487.735C587.935 477.238 637.599 492.934 687.264 468.997C701.668 462.032 714.856 451.928 726.641 439.567C748.527 416.611 766.017 386.199 779.111 355.199C796.976 312.917 809.228 268.182 828.496 226.685C830.928 221.388 833.546 216.09 836.352 210.891C860.39 165.47 899.486 123.776 946.999 114.162C968.792 109.748 989.836 112.004 1010.88 117.988C1049.6 128.877 1086.45 152.618 1126.48 166.156C1149.4 173.808 1172.6 177.634 1194.86 178.419C1214.31 179.106 1233.39 177.634 1251.25 174.299C1289.88 167.137 1324.3 152.226 1359.66 131.428" stroke="#0B2B4F" stroke-opacity="0.15" stroke-miterlimit="10"/>
<path d="M10.5684 557.976C43.3041 499.801 113.733 474.001 165.268 487.931C196.414 496.466 221.106 516.773 257.957 527.957C262.634 529.428 267.31 530.605 272.174 531.586C311.737 539.925 355.229 534.53 393.109 525.406C436.04 515.105 478.409 499.115 524.801 491.463C585.128 481.554 635.728 502.156 687.17 480.083C702.041 473.706 715.79 463.896 728.043 451.633C750.771 428.972 768.822 398.168 782.104 366.873C800.249 324.002 812.221 278.581 831.395 236.397C833.826 231.002 836.445 225.606 839.251 220.309C863.289 174.103 903.039 131.624 951.394 122.893C973.655 118.871 994.886 121.912 1016.12 128.583C1055.03 140.846 1092.06 165.862 1132.66 179.204C1155.85 186.856 1179.52 190.093 1202.24 189.995C1222.07 189.995 1241.34 187.444 1259.48 183.03C1298.39 173.514 1332.72 155.954 1367.79 132.998" stroke="#0B2B4F" stroke-opacity="0.15" stroke-miterlimit="10"/>
<path d="M9.35352 554.248C42.744 496.564 114.856 473.02 165.55 490.874C196.228 501.665 219.611 524.621 255.994 536.884C260.577 538.454 265.347 539.729 270.024 540.808C309.307 549.735 352.799 542.868 390.304 532.273C432.767 520.207 474.669 502.352 520.873 495.289C582.042 485.969 633.578 511.377 686.89 491.365C702.323 485.577 716.633 475.963 729.26 463.896C752.736 441.431 771.442 410.43 784.911 378.645C803.336 335.284 815.028 289.078 834.201 246.208C836.633 240.714 839.252 235.22 841.964 229.824C866.002 182.834 906.407 139.571 955.698 131.722C978.332 128.093 999.844 131.82 1021.17 139.276C1060.36 152.814 1097.4 179.106 1138.64 192.349C1162.21 199.903 1186.34 202.65 1209.35 201.669C1229.46 200.884 1249.1 197.353 1267.34 191.957C1306.63 180.185 1340.67 159.878 1375.46 134.862" stroke="#0B2B4F" stroke-opacity="0.15" stroke-miterlimit="10"/>
<path d="M8.1377 550.618C42.1829 493.523 115.885 472.235 165.831 493.817C196.041 506.963 218.021 532.469 254.124 545.713C258.707 547.381 263.383 548.852 268.06 549.932C307.062 559.447 350.647 551.109 387.686 539.042C429.681 525.308 471.021 505.491 517.226 499.017C579.237 490.285 631.801 520.599 686.891 502.45C702.884 497.153 717.662 487.931 730.85 475.864C755.168 453.693 774.435 422.301 788.091 390.221C806.797 346.272 818.208 299.379 837.288 255.821C839.72 250.23 842.339 244.638 845.051 239.242C869.088 191.467 910.148 147.419 960.281 140.453C983.383 137.216 1005.08 141.631 1026.59 149.871C1065.97 164.685 1103.2 192.349 1144.91 205.397C1168.85 212.853 1193.36 215.011 1216.84 213.245C1237.32 211.676 1257.24 207.261 1275.57 200.688C1315.14 186.561 1349.09 163.606 1383.51 136.529" stroke="#0B2B4F" stroke-opacity="0.15" stroke-miterlimit="10"/>
<path d="M7.01514 546.988C41.7151 490.384 117.101 471.45 166.204 496.858C195.947 512.26 216.524 540.416 252.253 554.64C256.742 556.504 261.419 557.976 266.095 559.153C304.817 569.159 348.403 559.545 385.16 545.811C426.594 530.311 467.467 508.729 513.578 502.744C576.431 494.602 630.024 529.919 686.89 513.536C703.445 508.827 718.691 499.801 732.346 487.931C757.506 465.956 777.335 434.367 791.177 401.797C810.164 357.357 821.294 309.68 840.374 265.435C842.806 259.746 845.425 254.154 848.138 248.562C872.175 199.903 913.89 155.169 964.864 149.086C988.34 146.34 1010.32 151.441 1031.93 160.368C1071.49 176.555 1108.9 205.397 1151.18 218.445C1175.5 225.9 1200.37 227.47 1224.32 224.821C1245.08 222.565 1265.28 217.071 1283.9 209.419C1323.84 193.036 1357.6 167.235 1391.74 138.197" stroke="#0B2B4F" stroke-opacity="0.15" stroke-miterlimit="10"/>
<path d="M5.7998 543.359C41.0609 487.342 118.13 470.665 166.486 499.801C195.761 517.46 215.028 548.264 250.289 563.568C254.779 565.53 259.362 567.099 264.038 568.375C302.48 578.97 346.158 567.982 382.448 552.678C423.415 535.609 463.82 511.966 509.744 506.57C573.438 499.016 627.967 539.238 686.798 524.817C703.914 520.697 719.627 511.966 733.75 500.194C759.658 478.415 780.141 446.532 794.171 413.668C813.345 368.639 824.288 320.275 843.274 275.344C845.706 269.556 848.325 263.866 851.038 258.176C875.075 208.732 917.444 163.213 969.354 158.014C993.204 155.659 1015.46 161.447 1037.26 171.159C1077.1 188.622 1114.51 218.837 1157.44 231.688C1182.14 239.046 1207.48 240.125 1231.8 236.593C1252.94 233.552 1273.42 227.176 1292.13 218.445C1332.44 199.707 1366.02 171.257 1399.78 140.159" stroke="#0B2B4F" stroke-opacity="0.15" stroke-miterlimit="10"/>
<path d="M4.67676 539.631C40.5926 484.203 119.346 469.782 166.766 502.745C195.573 522.757 213.437 556.112 248.418 572.397C252.907 574.457 257.397 576.223 262.073 577.498C300.234 588.682 343.913 576.223 379.829 559.448C420.328 540.612 460.172 515.203 506.095 510.298C570.725 503.431 626.189 548.46 686.797 535.903C704.474 532.273 720.748 523.836 735.246 512.26C761.902 490.776 783.04 458.5 797.257 425.244C816.711 379.724 827.374 330.575 846.36 284.86C848.792 278.974 851.411 273.186 854.123 267.398C878.161 217.169 921.185 170.865 973.936 166.549C998.254 164.587 1020.7 171.16 1042.68 181.558C1082.71 200.394 1120.31 231.885 1163.71 244.54C1188.78 251.799 1214.5 252.29 1239.19 247.875C1260.7 244.049 1281.47 236.692 1300.27 226.881C1340.86 205.79 1374.34 174.691 1407.83 141.435" stroke="#0B2B4F" stroke-opacity="0.15" stroke-miterlimit="10"/>
<path d="M3.46045 536.001C40.031 481.064 120.374 468.997 167.046 505.688C195.292 527.957 211.941 563.96 246.453 581.226C250.849 583.482 255.339 585.248 259.922 586.622C297.802 598.296 341.574 584.464 377.022 566.118C417.054 545.615 456.337 518.245 502.167 513.928C567.638 507.65 624.037 557.584 686.516 546.89C704.754 543.849 721.496 535.707 736.461 524.131C763.959 502.941 785.658 470.371 800.062 436.722C819.797 390.614 830.273 340.68 849.072 294.376C851.504 288.391 854.029 282.505 856.835 276.717C880.873 225.704 924.552 178.615 978.238 175.084C1002.93 173.514 1025.66 180.773 1047.73 191.957C1087.95 212.068 1125.74 244.834 1169.7 257.391C1195.04 264.651 1221.33 264.553 1246.39 259.255C1268.18 254.742 1289.23 246.306 1308.31 235.514C1349.28 212.166 1382.57 178.321 1415.68 143.004" stroke="#0B2B4F" stroke-opacity="0.15" stroke-miterlimit="10"/>
<path d="M2.33789 532.371C39.5631 478.023 121.59 468.114 167.42 508.729C195.198 533.352 210.444 571.906 244.583 590.251C248.979 592.606 253.375 594.47 257.958 595.941C295.557 608.204 339.329 592.998 374.403 573.084C413.873 550.814 452.782 521.678 498.519 517.754C564.832 512.162 622.26 566.903 686.516 558.172C705.315 555.621 722.525 547.773 737.957 536.393C766.204 515.4 788.558 482.535 803.148 448.494C823.164 401.895 833.359 351.177 852.158 304.186C854.59 298.104 857.116 292.119 859.922 286.233C883.959 234.435 928.293 186.561 982.821 183.913C1007.98 182.735 1030.9 190.78 1053.16 202.65C1093.65 224.135 1131.44 258.176 1176.06 270.537C1201.78 277.698 1228.43 277.11 1253.97 270.929C1276.13 265.632 1297.46 256.312 1316.63 244.344C1357.88 218.641 1390.99 182.049 1423.82 144.77" stroke="#0B2B4F" stroke-opacity="0.15" stroke-miterlimit="10"/>
<path d="M1.12256 528.741C39.0025 474.981 122.619 467.33 167.701 511.672C195.012 538.552 208.854 579.754 242.713 599.081C247.015 601.533 251.504 603.495 255.994 605.065C293.313 617.916 337.085 601.239 371.879 579.853C410.881 555.818 449.228 525.014 494.871 521.482C562.027 516.675 620.39 576.027 686.516 569.258C705.877 567.296 723.648 559.742 739.548 548.46C768.636 527.76 791.551 494.602 806.329 460.168C826.625 413.079 836.539 361.575 855.246 313.898C857.677 307.717 860.203 301.635 863.009 295.651C887.046 243.068 932.034 194.41 987.498 192.644C1013.03 191.859 1036.23 200.59 1058.58 213.245C1099.27 236.103 1137.24 271.322 1182.32 283.682C1208.42 290.746 1235.54 289.569 1261.45 282.603C1283.9 276.619 1305.6 266.22 1324.86 253.271C1366.48 225.312 1399.41 185.973 1431.96 146.634" stroke="#0B2B4F" stroke-opacity="0.15" stroke-miterlimit="10"/>
<path d="M0 525.112C38.5347 471.842 123.835 466.545 168.075 514.713C194.918 543.849 207.451 587.701 240.842 608.106C280.312 632.141 330.725 612.521 369.26 586.818C407.794 561.115 445.581 528.349 491.13 525.406C559.127 521.09 618.519 585.444 686.516 580.637C742.728 576.615 786.22 525.798 809.415 472.038C832.611 418.279 841.964 358.632 866.002 305.265C890.132 251.897 935.775 202.454 991.987 201.571C1065.13 200.394 1117.69 277.993 1188.59 296.828C1237.97 309.974 1291.1 292.414 1333.09 262.1C1375.09 231.786 1407.83 189.799 1440 148.302" stroke="#0B2B4F" stroke-opacity="0.15" stroke-miterlimit="10"/>
<path d="M0.374512 520.108C39.751 467.231 124.77 461.738 170.039 508.729C188.652 528.055 200.998 554.052 217.179 575.438C224.942 585.641 233.547 594.764 244.209 601.435C252.908 606.929 262.167 610.264 271.707 612.03C305.285 618.014 342.791 602.514 373.188 582.992C377.397 580.343 381.606 577.498 385.721 574.751C420.515 551.305 455.308 525.014 496.088 521.776C547.997 517.852 595.324 553.071 644.895 568.571C659.673 573.182 674.731 576.027 690.164 575.34C745.441 573.083 788.184 527.074 812.128 476.943C817.646 465.367 822.604 453.497 827.187 441.332C842.339 400.718 853.469 357.259 872.362 316.743C879.47 301.537 888.262 286.625 898.363 272.891C923.336 239.34 956.82 213.736 995.542 211.479C1015.84 210.302 1034.54 215.403 1052.6 223.546C1097.3 243.755 1137.9 283.094 1187.65 294.376C1236.29 305.461 1288.76 287.607 1330.66 257.98C1372.56 228.353 1405.95 187.935 1438.69 148.596" stroke="#0B2B4F" stroke-opacity="0.15" stroke-miterlimit="10"/>
<path d="M0.654297 515.203C40.9661 462.719 125.611 457.127 172.003 502.941C191.083 521.776 204.084 547.283 220.545 568.669C228.402 578.872 237.007 588.093 247.669 594.96C256.274 600.552 265.533 604.182 275.074 606.144C308.651 613.011 346.438 598.394 377.303 579.362C381.512 576.713 385.814 574.065 390.023 571.318C425.284 548.362 460.358 522.071 501.231 518.343C552.673 513.634 600.093 546.988 649.29 562.685C663.974 567.394 678.752 570.435 693.904 570.337C748.246 569.944 790.054 528.643 815.027 482.241C820.732 471.548 825.97 460.462 830.927 448.984C847.201 410.823 859.547 368.541 878.908 328.613C886.204 313.604 894.996 298.79 905.003 285.252C929.602 251.799 961.964 225.802 999.376 221.976C1019.02 220.014 1037.07 223.938 1054.56 230.904C1097.96 247.973 1137.99 283.388 1187 292.512C1234.89 301.537 1286.61 283.29 1328.51 254.35C1370.41 225.41 1404.36 186.66 1437.66 149.381" stroke="#0B2B4F" stroke-opacity="0.15" stroke-miterlimit="10"/>
<path d="M1.02881 510.2C42.1823 458.108 126.547 452.32 173.967 497.055C193.515 515.498 207.171 540.514 223.913 561.9C231.863 572.103 240.468 581.422 251.13 588.486C259.735 594.274 268.807 598.1 278.348 600.258C311.925 608.008 349.992 594.274 381.325 575.732C385.627 573.182 389.93 570.533 394.232 567.884C429.961 545.419 465.222 519.128 506.282 514.811C557.35 509.514 604.864 540.71 653.593 556.602C668.184 561.409 682.775 564.745 697.646 565.137C751.052 566.511 792.112 530.017 817.833 487.342C823.819 477.532 829.244 467.232 834.482 456.44C851.878 420.633 865.44 379.528 885.269 340.189C892.658 325.376 901.45 310.759 911.364 297.221C935.588 263.964 966.828 237.476 1002.84 232.081C1021.73 229.334 1039.22 232.179 1056.24 237.771C1098.43 251.701 1137.9 283.094 1186.06 290.157C1233.11 297.024 1284.27 278.581 1326.17 250.328C1368.07 222.074 1402.49 184.992 1436.45 149.773" stroke="#0B2B4F" stroke-opacity="0.15" stroke-miterlimit="10"/>
<path d="M1.40283 505.295C43.3982 453.595 127.482 447.611 176.025 491.267C196.04 509.219 210.351 533.745 227.373 555.229C235.417 565.432 244.115 574.849 254.591 582.109C263.102 587.995 272.174 592.115 281.715 594.47C315.292 603.103 353.64 590.153 385.44 572.201C389.836 569.748 394.139 567.099 398.535 564.451C434.637 542.476 470.273 516.184 511.426 511.377C562.026 505.393 609.634 534.53 657.989 550.716C672.393 555.523 686.796 559.153 701.387 560.036C753.858 563.273 794.076 531.39 820.733 492.542C826.906 483.516 832.704 474.099 838.223 463.994C856.835 430.541 871.613 390.712 891.816 351.962C899.392 337.442 908.184 322.825 917.911 309.385C941.761 276.227 971.972 249.347 1006.58 242.283C1024.72 238.654 1041.65 240.419 1058.11 244.834C1098.99 255.625 1137.9 283.094 1185.32 287.999C1231.61 292.806 1282.03 274.068 1323.93 246.502C1365.83 218.935 1400.81 183.422 1435.32 150.362" stroke="#0B2B4F" stroke-opacity="0.15" stroke-miterlimit="10"/>
<path d="M1.77637 500.39C44.707 449.083 128.417 443 178.082 485.478C198.565 502.941 213.624 527.074 230.833 548.558C238.97 558.761 247.669 568.277 258.144 575.732C266.655 581.815 275.634 586.131 285.081 588.78C318.659 598.296 357.287 586.229 389.555 568.767C393.951 566.315 398.44 563.862 402.836 561.213C439.407 539.729 475.323 513.536 516.57 508.042C566.702 501.371 614.403 528.447 662.384 544.928C676.694 549.833 690.818 553.757 705.221 555.131C756.757 560.134 796.227 533.058 823.631 497.839C829.991 489.697 836.071 481.064 841.963 471.744C861.698 440.744 877.692 401.994 898.362 363.832C906.125 349.509 914.917 335.088 924.457 321.648C947.934 288.588 977.022 261.217 1010.32 252.682C1027.81 248.268 1043.99 248.954 1059.98 251.996C1099.64 259.647 1137.89 283.192 1184.57 285.939C1230.12 288.686 1279.87 269.556 1321.68 242.676C1363.58 215.796 1399.13 181.951 1434.2 150.852" stroke="#0B2B4F" stroke-opacity="0.15" stroke-miterlimit="10"/>
<path d="M2.15039 495.387C45.9228 444.57 129.352 438.193 180.046 479.592C200.997 496.662 216.71 520.207 234.2 541.691C242.431 551.894 251.129 561.508 261.605 569.16C270.022 575.34 279.002 579.853 288.448 582.796C322.026 593.195 360.841 582.011 393.67 565.039C398.16 562.685 402.649 560.232 407.139 557.682C444.177 536.688 480.28 510.593 521.714 504.51C571.379 497.251 619.266 522.169 666.78 538.944C680.903 543.947 694.933 548.068 709.056 549.932C759.656 556.701 798.284 534.431 826.531 502.941C833.078 495.681 839.438 487.833 845.704 479.2C866.562 450.554 883.865 413.079 904.909 375.408C912.766 361.281 921.558 347.056 931.005 333.616C954.2 300.752 982.072 272.793 1014.06 262.787C1030.8 257.489 1046.42 257.097 1061.85 258.961C1100.3 263.473 1137.89 283.094 1183.82 283.682C1228.62 284.369 1277.63 264.945 1319.44 238.752C1361.34 212.558 1397.35 180.283 1433.08 151.343" stroke="#0B2B4F" stroke-opacity="0.15" stroke-miterlimit="10"/>
<path d="M2.52539 490.482C47.1396 440.057 130.288 433.484 182.104 473.804C203.523 490.384 219.891 513.438 237.662 535.02C245.986 545.223 254.684 554.935 265.066 562.783C273.484 569.16 282.37 573.868 291.723 577.008C325.207 588.29 364.396 577.989 397.693 561.508C402.276 559.251 406.765 556.897 411.348 554.346C448.854 533.843 485.238 507.748 526.765 501.077C575.963 493.131 623.944 516.086 670.99 533.058C685.02 538.159 698.769 542.574 712.611 544.928C762.276 553.561 800.156 535.903 829.244 508.238C835.978 501.763 842.619 494.798 849.26 486.852C871.239 460.659 889.758 424.361 911.177 387.278C919.221 373.348 928.012 359.221 937.272 345.879C960.094 313.113 986.843 284.762 1017.43 273.088C1033.52 267.005 1048.48 265.436 1063.35 266.024C1100.48 267.398 1137.52 283.094 1182.7 281.524C1226.75 280.151 1275.11 260.432 1316.82 234.926C1358.63 209.419 1395.29 178.811 1431.58 151.931" stroke="#0B2B4F" stroke-opacity="0.15" stroke-miterlimit="10"/>
<path d="M2.89941 485.478C48.4489 435.446 131.224 428.677 184.069 467.918C205.955 484.105 223.071 506.668 241.029 528.251C249.447 538.355 258.238 548.264 268.527 556.21C276.851 562.685 285.643 567.688 295.09 571.122C328.574 583.286 368.044 573.77 401.808 557.878C406.391 555.719 411.068 553.365 415.557 550.913C453.531 530.9 490.195 504.903 531.816 497.545C580.639 489.01 628.62 509.808 675.292 527.074C689.135 532.175 702.79 536.884 716.352 539.827C765.082 550.226 802.213 537.374 832.05 513.438C838.971 507.846 845.892 501.665 852.907 494.504C876.009 470.665 895.744 435.544 917.63 399.051C925.768 385.414 934.653 371.386 943.725 358.044C966.173 325.376 991.8 296.632 1021.08 283.388C1036.41 276.423 1050.82 273.872 1065.22 273.186C1101.14 271.42 1137.52 283.192 1181.95 279.464C1225.16 275.932 1272.86 255.92 1314.67 231.1C1356.48 206.28 1393.7 177.34 1430.46 152.52" stroke="#0B2B4F" stroke-opacity="0.15" stroke-miterlimit="10"/>
<path d="M3.27295 480.573C49.6642 430.934 132.158 424.067 186.126 462.13C208.479 477.826 226.25 499.899 244.489 521.58C253 531.685 261.792 541.691 271.987 549.833C280.311 556.504 289.009 561.704 298.456 565.334C331.94 578.381 371.691 569.748 405.829 554.346C410.506 552.188 415.183 549.931 419.766 547.577C458.207 528.055 495.058 502.156 536.866 494.21C585.222 484.988 633.39 503.725 679.594 521.286C693.343 526.485 706.718 531.488 719.999 534.824C767.794 546.988 804.177 538.944 834.855 518.637C842.057 513.928 849.259 508.532 856.554 502.058C880.779 480.573 901.823 446.728 924.084 410.725C932.408 397.285 941.2 383.452 950.272 370.11C972.345 337.541 996.85 308.404 1024.82 293.493C1039.41 285.743 1053.25 282.015 1067.09 280.053C1101.79 275.148 1137.61 282.898 1181.2 277.11C1223.66 271.518 1270.62 251.211 1312.42 227.078C1354.23 202.944 1391.92 175.574 1429.34 152.814" stroke="#0B2B4F" stroke-opacity="0.15" stroke-miterlimit="10"/>
<path d="M3.64795 475.668C50.9745 426.421 133.188 419.358 188.091 456.244C210.912 471.548 229.338 493.13 247.857 514.713C256.555 524.817 265.254 534.922 275.448 543.261C283.679 550.03 292.377 555.425 301.731 559.349C335.215 573.28 375.246 565.53 409.852 550.618C414.622 548.558 419.299 546.4 423.975 544.045C462.884 525.014 500.016 499.213 541.918 490.58C589.805 480.77 638.067 497.349 683.897 515.203C697.553 520.501 710.647 525.7 723.741 529.624C770.6 543.653 806.236 540.219 837.662 523.738C845.051 519.912 852.533 515.302 860.203 509.514C885.55 490.482 907.81 457.716 930.538 422.399C939.049 409.155 947.841 395.421 956.727 382.275C978.426 349.901 1001.81 320.275 1028.46 303.793C1042.4 295.259 1055.59 290.353 1068.87 287.214C1102.35 279.072 1137.52 282.996 1180.36 275.05C1222.07 267.398 1268.37 246.796 1310.09 223.252C1351.89 199.805 1390.15 174.103 1428.12 153.403" stroke="#0B2B4F" stroke-opacity="0.15" stroke-miterlimit="10"/>
<path d="M4.02197 470.665C52.1903 421.81 134.123 414.551 190.148 450.358C213.437 465.171 232.518 486.263 251.317 507.944C260.109 518.048 268.808 528.251 279.003 536.786C287.14 543.751 295.838 549.343 305.191 553.463C338.675 568.277 378.987 561.311 414.061 546.988C418.831 545.026 423.695 542.868 428.371 540.612C467.748 522.071 505.16 496.368 547.155 487.146C594.575 476.747 643.024 491.168 688.387 509.317C701.855 514.615 714.856 520.207 727.67 524.523C773.687 540.318 808.48 541.691 840.748 528.938C848.324 525.897 856.087 522.169 864.131 517.165C890.507 500.488 914.17 468.997 937.272 434.171C945.877 421.124 954.762 407.585 963.461 394.44C984.786 362.164 1007.05 332.047 1032.39 314.094C1045.58 304.676 1058.21 298.79 1070.93 294.278C1103.2 282.996 1137.71 282.996 1179.8 272.891C1220.76 263.179 1266.31 242.185 1308.03 219.426C1349.84 196.666 1388.65 172.533 1427.19 153.992" stroke="#0B2B4F" stroke-opacity="0.15" stroke-miterlimit="10"/>
<path d="M4.396 465.76C53.4061 417.298 135.058 409.94 192.206 444.57C215.963 458.893 235.791 479.592 254.778 501.273C263.663 511.377 272.455 521.678 282.463 530.409C290.6 537.473 299.205 543.359 308.465 547.773C341.949 563.568 382.541 557.387 418.083 543.555C422.946 541.691 427.81 539.631 432.58 537.374C472.33 519.324 510.023 493.719 552.206 483.811C599.252 472.823 647.701 485.184 692.689 503.431C706.064 508.827 718.784 514.615 731.317 519.52C776.399 537.178 810.444 543.261 843.461 534.137C851.317 531.979 859.267 529.036 867.685 524.719C895.183 510.396 920.062 480.083 943.632 445.943C952.424 433.19 961.216 419.75 969.821 406.604C990.771 374.427 1011.91 343.917 1035.85 324.297C1048.29 314.094 1060.36 307.031 1072.52 301.341C1103.57 286.822 1137.43 282.996 1178.77 270.733C1218.99 258.961 1263.88 237.673 1305.6 215.6C1347.31 193.527 1386.78 171.061 1425.88 154.58" stroke="#0B2B4F" stroke-opacity="0.15" stroke-miterlimit="10"/>
<path d="M4.77051 460.757C54.716 412.687 135.994 405.133 194.17 438.684C218.395 452.614 238.878 472.725 258.145 494.504C267.124 504.608 275.916 515.007 285.924 523.935C293.968 531.194 302.479 537.276 311.832 541.887C345.223 558.565 386.189 553.267 422.199 539.827C427.156 537.963 432.019 536.001 436.883 533.843C477.101 516.283 515.075 490.776 557.351 480.279C603.929 468.703 652.471 478.906 697.086 497.447C710.273 502.941 722.806 509.023 735.153 514.419C779.299 533.843 812.69 544.732 846.361 539.337C854.404 538.061 862.635 536.001 871.427 532.273C900.047 520.305 926.142 491.267 950.18 457.618C959.159 445.06 967.951 431.719 976.368 418.671C996.945 386.69 1016.96 355.69 1039.6 334.499C1051.38 323.512 1062.79 315.271 1074.48 308.306C1104.32 290.55 1137.52 282.898 1178.11 268.477C1217.49 254.644 1261.73 232.964 1303.45 211.578C1345.16 190.191 1385.1 169.394 1424.85 154.875" stroke="#0B2B4F" stroke-opacity="0.15" stroke-miterlimit="10"/>
<path d="M5.14404 455.852C55.9313 408.174 136.929 400.424 196.227 432.896C220.92 446.336 242.057 466.054 261.605 487.735C270.678 497.839 279.47 508.336 289.384 517.46C297.428 524.817 305.846 531.194 315.199 536.001C348.589 553.561 389.836 549.147 426.313 536.197C431.27 534.431 436.227 532.469 441.185 530.409C481.87 513.241 520.125 487.931 562.494 476.747C608.605 464.583 657.334 472.627 701.481 491.463C714.575 497.055 726.921 503.333 738.893 509.219C782.104 530.409 814.747 546.204 849.259 544.438C857.49 544.045 866.001 542.77 875.074 539.827C904.817 530.213 932.221 502.352 956.539 469.292C965.612 456.931 974.497 443.785 982.728 430.738C1002.93 398.854 1021.82 367.462 1043.15 344.702C1054.19 332.93 1064.94 323.512 1076.17 315.37C1104.79 294.474 1137.33 282.898 1177.18 266.318C1215.81 250.328 1259.39 228.451 1301.01 207.752C1342.73 187.052 1383.23 167.824 1423.54 155.463" stroke="#0B2B4F" stroke-opacity="0.15" stroke-miterlimit="10"/>
<path d="M5.51855 450.946C57.2411 403.661 137.865 395.715 198.192 427.108C223.352 440.155 245.238 459.285 264.973 481.064C274.139 491.168 283.024 501.763 292.845 510.985C300.795 518.539 309.213 525.112 318.473 530.115C351.863 548.558 393.297 544.928 430.335 532.567C435.386 530.9 440.437 529.036 445.394 526.976C486.547 510.298 525.082 485.086 567.545 473.314C613.282 460.56 662.011 466.447 705.784 485.576C718.691 491.168 730.85 497.839 742.635 504.216C784.911 527.27 816.805 547.773 852.066 549.735C860.577 550.226 869.369 549.735 878.722 547.479C909.494 540.219 938.208 513.634 962.993 481.162C972.253 468.997 981.138 456.048 989.182 443C1009.1 411.215 1026.78 379.43 1046.8 355.003C1057.18 342.348 1067.28 331.851 1077.94 322.433C1105.25 298.3 1137.33 282.898 1176.34 264.16C1214.22 246.109 1257.05 223.938 1298.68 203.926C1340.39 183.913 1381.45 166.352 1422.32 156.052" stroke="#0B2B4F" stroke-opacity="0.15" stroke-miterlimit="10"/>
<path d="M5.89209 445.943C58.4564 399.05 138.799 391.006 200.249 421.222C225.876 433.779 248.417 452.418 268.433 474.295C277.693 484.399 286.578 495.092 296.399 504.51C304.349 512.162 312.673 518.931 321.933 524.327C355.323 543.653 397.038 540.906 434.544 529.036C439.688 527.368 444.739 525.602 449.789 523.64C491.41 507.453 530.132 482.437 572.782 469.88C618.051 456.538 666.968 460.364 710.272 479.69C723.086 485.38 735.058 492.247 746.562 499.115C787.903 523.934 819.049 549.343 855.152 554.837C863.85 556.21 872.922 556.504 882.65 554.935C914.544 550.03 944.567 524.719 969.727 492.738C979.08 480.868 987.965 467.918 996.009 454.969C1015.56 423.38 1032.11 391.104 1050.72 365.107C1060.36 351.667 1069.9 339.993 1080 329.398C1106.09 302.028 1137.52 282.701 1175.78 261.806C1212.91 241.695 1255.09 219.131 1296.71 199.805C1338.42 180.479 1379.95 164.488 1421.48 156.346" stroke="#0B2B4F" stroke-opacity="0.15" stroke-miterlimit="10"/>
<path d="M6.26611 441.038C59.6722 394.538 139.735 386.297 202.307 415.434C228.402 427.598 251.597 445.747 271.893 467.624C281.247 477.728 290.132 488.52 299.859 498.134C307.716 505.982 315.946 512.947 325.206 518.539C358.597 538.748 400.592 536.884 438.565 525.504C443.71 523.935 448.854 522.169 453.904 520.305C495.993 504.608 534.996 479.691 577.739 466.447C622.54 452.614 671.551 454.184 714.481 473.804C727.108 479.592 738.893 486.656 750.116 494.112C790.522 520.697 820.919 551.011 857.77 560.134C866.656 562.391 876.009 563.47 886.11 562.685C919.127 560.134 950.366 536.001 975.993 504.608C985.533 492.934 994.419 480.181 1002.28 467.33C1021.45 435.839 1036.88 403.171 1054.18 375.604C1063.07 361.379 1072.05 348.528 1081.59 336.658C1106.38 306.05 1137.24 282.898 1174.75 259.844C1211.04 237.673 1252.56 214.815 1294.18 196.176C1335.81 177.438 1377.99 163.213 1419.98 157.131" stroke="#0B2B4F" stroke-opacity="0.15" stroke-miterlimit="10"/>
<path d="M6.64062 436.133C60.982 390.025 140.67 381.588 204.271 409.646C230.834 421.32 254.778 438.978 275.261 460.855C284.708 470.959 293.593 481.849 303.32 491.659C311.177 499.605 319.314 506.865 328.574 512.653C361.964 533.745 404.24 532.764 442.681 521.874C447.919 520.403 453.157 518.735 458.207 516.871C500.764 501.665 540.047 476.944 582.884 463.013C627.311 448.592 676.321 448.003 718.877 467.918C731.411 473.804 742.915 481.162 753.952 489.01C793.421 517.46 823.071 552.482 860.764 565.334C869.836 568.473 879.47 570.239 889.945 570.239C924.084 570.043 956.539 547.185 982.634 516.381C992.361 504.903 1001.25 492.346 1008.92 479.494C1027.72 448.102 1042.12 415.041 1058.02 385.807C1066.25 370.797 1074.48 356.769 1083.65 343.721C1107.22 309.876 1137.43 282.898 1174.19 257.685C1209.73 233.454 1250.6 210.302 1292.13 192.251C1333.75 174.201 1376.49 161.644 1419.05 157.523" stroke="#0B2B4F" stroke-opacity="0.15" stroke-miterlimit="10"/>
<path d="M7.01514 431.13C62.1983 385.414 141.606 376.879 206.329 403.661C233.36 414.845 257.958 432.111 278.722 453.988C288.356 464.092 297.241 475.08 306.781 485.086C314.544 493.229 322.682 500.684 331.848 506.767C365.145 528.741 407.795 528.545 446.61 518.245C451.941 516.871 457.179 515.203 462.323 513.438C505.254 498.722 544.911 474.099 587.841 459.481C631.801 444.57 680.998 441.725 723.087 461.934C735.526 467.82 746.844 475.472 757.506 483.909C796.041 514.124 824.942 554.052 863.383 570.533C872.643 574.457 882.557 577.106 893.406 577.792C928.667 579.951 962.432 558.27 988.901 528.055C998.722 516.773 1007.61 504.314 1015.18 491.561C1033.61 460.364 1046.89 426.813 1061.48 396.009C1069.06 380.117 1076.63 365.009 1085.24 350.686C1107.5 313.604 1137.15 282.8 1173.16 255.429C1207.95 229.04 1248.08 205.593 1289.6 188.327C1331.22 170.963 1374.53 159.976 1417.65 158.014" stroke="#0B2B4F" stroke-opacity="0.15" stroke-miterlimit="10"/>
<path d="M7.38867 426.225C63.4136 380.902 142.541 372.171 208.293 397.873C235.791 408.665 261.044 425.342 282.089 447.317C291.816 457.421 300.701 468.409 310.241 478.709C317.911 486.95 326.048 494.7 335.214 500.979C368.511 523.836 411.442 524.523 450.725 514.713C456.056 513.339 461.387 511.868 466.625 510.102C510.023 495.877 549.961 471.548 592.985 456.146C636.57 440.744 685.767 435.643 727.482 456.146C739.735 462.13 750.865 470.077 761.34 479.004C798.94 511.083 826.999 555.818 866.375 575.83C875.916 580.736 886.017 584.071 897.241 585.543C933.624 590.055 968.605 569.65 995.541 540.023C1005.55 529.036 1014.43 516.675 1021.82 503.922C1039.87 472.823 1052.03 438.88 1065.32 406.506C1072.14 389.829 1079.06 373.544 1087.2 358.044C1108.06 317.724 1137.24 283.094 1172.5 253.565C1206.55 225.116 1246.02 201.375 1287.45 184.796C1329.07 168.118 1372.84 158.799 1416.62 158.897" stroke="#0B2B4F" stroke-opacity="0.15" stroke-miterlimit="10"/>
<path d="M7.7627 421.222C88.5733 357.553 213.437 366.186 285.549 440.548C303.227 458.795 318.098 480.475 338.581 495.093C376.461 522.071 427.061 520.403 470.927 506.669C514.793 492.934 555.011 468.703 598.129 452.614C641.247 436.526 690.537 429.462 731.878 450.162C798.285 483.418 828.495 579.755 900.888 592.998C952.237 602.416 1001.43 562.783 1028.28 515.89C1055.12 468.997 1066.62 414.256 1088.88 364.813C1146.41 237.182 1281 152.52 1415.4 159.093" stroke="#0B2B4F" stroke-opacity="0.15" stroke-miterlimit="10"/>
</svg>
