<svg width="80" height="80" viewBox="0 0 80 80" fill="none" xmlns="http://www.w3.org/2000/svg">
<rect width="80" height="80" rx="12" fill="#0B2B4F"/>
<path d="M46.9578 51.3765C47.3405 51.3765 47.6413 51.6723 47.6413 52.0488C47.6413 52.4254 47.3405 52.7212 46.9578 52.7212H33.0419C32.6591 52.7212 32.3584 52.4254 32.3584 52.0488C32.3584 51.6723 32.6591 51.3765 33.0419 51.3765H46.9578Z" fill="white"/>
<path d="M46.4656 42.286C46.6843 42.7701 46.6843 43.3349 46.3836 43.7921C46.1375 44.2225 45.7274 44.4914 45.2353 44.5452C45.126 44.5452 45.0166 44.5452 44.8799 44.5452C44.3878 44.4914 43.9777 44.2225 43.7316 43.7921C43.4582 43.3349 43.4309 42.7432 43.677 42.286L45.0713 39.3545L46.4656 42.286Z" fill="white"/>
<path d="M40.3144 33.4646C40.8611 34.5942 40.8065 35.9121 40.1777 37.0148C39.5762 38.0637 38.5646 38.7091 37.3617 38.8436C37.225 38.8436 37.0883 38.8436 36.9516 38.8436C36.8149 38.8436 36.6782 38.8436 36.5415 38.8436C35.3659 38.736 34.327 38.0637 33.7255 37.0148C33.0967 35.9121 33.042 34.5942 33.5888 33.4646L36.3501 27.6822C36.4595 27.4402 36.7055 27.2788 36.9789 27.2788C37.2523 27.2788 37.4984 27.4402 37.6077 27.6822L40.3417 33.4646H40.3144ZM39.0021 36.3693C39.4122 35.6431 39.4395 34.7825 39.1114 34.0563L36.9789 29.5649L34.8464 34.0563C34.491 34.7825 34.5457 35.67 34.9558 36.3693C35.3385 37.0416 35.9673 37.4451 36.7055 37.5258C36.8696 37.5258 37.0609 37.5258 37.2523 37.5258C37.9905 37.4451 38.6466 37.0416 39.0294 36.3693H39.0021Z" fill="white"/>
<path d="M42.9937 22.2764H37.0063C36.8423 22.2764 36.7056 22.4108 36.7056 22.5722C36.7056 22.7336 36.8423 22.8681 37.0063 22.8681H42.9937C43.1577 22.8681 43.2944 22.7336 43.2944 22.5722C43.2944 22.4108 43.1577 22.2764 42.9937 22.2764Z" fill="white"/>
<path d="M53 22.0342C53 19.802 51.1682 18 48.8991 18H31.1009C28.8318 18 27 19.802 27 22.0342V42.7971V51.511V57.3472V57.9658C27 60.198 28.8318 62 31.1009 62H48.8991C51.1682 62 53 60.198 53 57.9658V57.3472V22.0342ZM51.6604 57.1589C51.6604 58.8802 50.2387 60.2518 48.5163 60.2518H31.5384C29.7886 60.2518 28.3943 58.8533 28.3943 57.1589V22.868C28.3943 21.1467 29.816 19.7751 31.5384 19.7751H48.5163C50.266 19.7751 51.6604 21.1736 51.6604 22.868V57.1589Z" fill="white"/>
</svg>
